<svg width="104" height="11" viewBox="0 0 104 11" fill="none" xmlns="http://www.w3.org/2000/svg">
    <path d="M37.217.5a4.719 4.719 0 0 1 4.664 4h-9.327a4.719 4.719 0 0 1 4.663-4zm-4.54 6h9.081a4.72 4.72 0 0 1-9.082 0zM52 9.935A4.72 4.72 0 0 1 47.46 6.5h9.08A4.72 4.72 0 0 1 52 9.935zM52 .5a4.719 4.719 0 0 1 4.663 4h-9.326A4.719 4.719 0 0 1 52 .5zm14.783 9.435A4.72 4.72 0 0 1 62.242 6.5h9.081a4.72 4.72 0 0 1-4.54 3.435zm0-9.435a4.719 4.719 0 0 1 4.663 4h-9.327a4.719 4.719 0 0 1 4.664-4z" fill="#9E28B5" stroke="#9E28B5"/>
</svg>
