<svg width="187" height="157" viewBox="0 0 187 157" fill="none" xmlns="http://www.w3.org/2000/svg">
    <g clip-path="url(#ad4huomoqa)" fill="#fff">
        <path d="M46.074 139.979c-.741-.561-1.18-1.32-1.309-2.259-.22-1.625.526-3.648 2.099-5.696 2.483-3.236 5.552-4.35 7.638-2.774 1.71 1.294 1.557 3.342 1.555 3.361l-.018.227 2.434-3.169.059-.075-.09-.028c-.123-.041-.245-.134-.334-.201-.283-.214-.522-.484-.798-.799-.39-.441-.831-.94-1.555-1.486-3.602-2.729-8.306-1.597-11.697 2.816-1.67 2.175-2.54 4.426-2.516 6.508.024 2.156 1.01 4.031 2.851 5.424 1.092.825 2.432 1.426 3.5 1.566l.039.007 2.042-2.664.122-.16-.192.054c-.022.009-2.177.597-3.83-.652zM70.505 135.316l.085-.065-3.835-1.823-.102-.048.007.113c.039.665-.261 1.65-.918 3.006l-1.803 3.737-4.454-2.115 1.805-3.736c.64-1.324 1.23-2.201 1.764-2.607l.084-.065-3.934-1.871.005.112c.034.642-.264 1.592-.94 2.994l-5.178 10.729c-.648 1.341-1.262 2.251-1.773 2.624l-.089.067 3.839 1.819.098.046-.003-.108c-.021-.64.307-1.683.95-3.016l2.302-4.765 4.452 2.113-2.303 4.769c-.64 1.326-1.245 2.205-1.793 2.611l-.089.067 3.928 1.867.004-.102c.011-.309.04-1.13.95-3.022l5.177-10.724c.64-1.322 1.23-2.199 1.764-2.607zM71.51 135.516l.023.106c.159.672.063 1.754-.272 3.13l-2.827 11.504c-.34 1.383-.761 2.402-1.22 2.947l-.091.11h.167c.592 0 1.27.084 1.912.242.77.188 1.544.455 2.364.741.948.33 1.927.669 3.045.941.813.197 1.65.303 2.555.322h.048l1.029-2.592-.118.022c-.624.097-1.977-.074-3.64-.478-1.097-.267-2.395-.719-2.96-.92l1.387-5.639 1.483.36a14.86 14.86 0 0 1 3.134 1.173l.061.033 1.403-2.955.043-.093-.104-.002c-.833-.005-2.388-.169-3.451-.426l-1.984-.482 1.172-4.765 3.306.804c1.227.298 2.54.84 3.151 1.199l.098.058.105-2.899.002-.054-9.717-2.361-.105-.026zM92.19 153.004c-.637-1.747-1.296-3.555-2.375-4.596 2.542-.67 4.054-2.357 4.154-4.644.07-1.597-.615-2.955-1.98-3.925-1.198-.853-2.868-1.365-4.703-1.445l-4.293-.184-.114-.004.053.101c.189.37.4 1.212.315 3.119l-.522 11.872c-.063 1.482-.263 2.518-.591 3.082l-.055.095 4.252.182.109.004-.046-.099c-.276-.588-.385-1.64-.32-3.124l.207-4.674c1.746.62 2.08 2.458 2.403 4.236.266 1.471.542 2.991 1.618 3.81l.018.013 3.904.168.236.009-.197-.129c-.881-.59-1.46-2.182-2.073-3.867zm-1.65-9.297c-.042.985-.442 1.724-1.19 2.195-.548.343-1.277.529-2.069.529-.071 0-.145 0-.22-.004l-.678-.026.252-5.728.679.03c.876.037 1.668.291 2.231.717.705.533 1.038 1.302.994 2.287zM107.331 151.317c-.972-1.588-1.977-3.231-3.24-4.041 2.32-1.139 3.492-3.137 3.138-5.368-.248-1.581-1.19-2.78-2.721-3.465-1.344-.6-3.082-.775-4.893-.492l-4.241.661-.113.017.072.089c.26.326.635 1.11.935 2.998l1.857 11.746c.233 1.471.244 2.527.035 3.136l-.035.104 4.197-.657.109-.017-.065-.086c-.387-.512-.7-1.519-.935-2.996l-.731-4.625c1.833.264 2.527 2.002 3.199 3.683.555 1.391 1.127 2.827 2.343 3.421l.019.009 4.091-.639-.217-.089c-.981-.406-1.866-1.855-2.804-3.389zm-7.001-5.337-.898-5.666.67-.108c.868-.13 1.694-.041 2.329.27.796.384 1.277 1.073 1.431 2.05.155.974-.091 1.775-.728 2.384-.511.486-1.27.83-2.136.966l-.668.104zM116.015 149.524l-3.621-11.327c-.45-1.408-.613-2.452-.487-3.1l.022-.11-4.054 1.279-.104.032.076.078c.469.473.933 1.424 1.381 2.821l3.621 11.325c.639 2.007.55 2.817.515 3.121l-.011.102 4.046-1.277.106-.032-.078-.078c-.489-.479-.964-1.434-1.412-2.834zM129.661 143.912c-.4.471-1.562 1.201-3.106 1.951-.961.464-2.186.929-2.869 1.175l-2.564-5.212 1.373-.665a14.665 14.665 0 0 1 3.164-1.096l.07-.015-.851-3.259-.082.065c-.648.531-1.953 1.395-2.928 1.866l-1.835.894-2.166-4.406 3.057-1.484c1.14-.551 2.499-.97 3.2-1.084l.111-.018-1.786-2.294-.033-.043-9.088 4.413.084.067c.559.419 1.184 1.311 1.803 2.579l5.235 10.629c.629 1.279.959 2.329.959 3.042v.142l.111-.093a8.26 8.26 0 0 1 1.642-1.043c.714-.348 1.486-.633 2.301-.937.938-.348 1.91-.709 2.943-1.21.759-.369 1.47-.821 2.17-1.38l.037-.028-.876-2.646-.076.09zM136.709 131.562c-1.337-.182-2.755.047-4.003.244-1.853.293-3.45.544-4.241-.512-.666-.89-.288-2.134.917-3.029 1.468-1.084 2.906-.969 4.239-.678l.176.039-2.529-3.374-.052-.071-.055.069a2.88 2.88 0 0 1-.58.566c-.263.194-.537.304-.883.443a8.38 8.38 0 0 0-2.136 1.175c-1.137.84-1.936 1.963-2.253 3.164-.339 1.294-.096 2.545.707 3.616 1.733 2.316 4.456 1.946 6.864 1.624 2.083-.28 4.051-.546 5.128.895.433.574.565 1.231.389 1.894-.172.657-.633 1.274-1.327 1.788-2.114 1.571-4.715.761-5.732.348l-.224-.093 2.498 3.333.02.026.03.002c.181.013.361.022.542.022 1.518 0 2.98-.514 4.35-1.527 1.579-1.169 2.531-2.605 2.753-4.158a4.969 4.969 0 0 0-.931-3.664c-.928-1.239-2.127-1.939-3.667-2.142zM38.89 131.265a2.66 2.66 0 0 0 2.67-2.652 2.662 2.662 0 0 0-2.67-2.652 2.662 2.662 0 0 0-2.67 2.652 2.66 2.66 0 0 0 2.67 2.652zM143.692 131.265a2.661 2.661 0 0 0 2.67-2.652 2.662 2.662 0 0 0-2.67-2.652 2.662 2.662 0 0 0-2.671 2.652 2.661 2.661 0 0 0 2.671 2.652zM21.704 78.45c-.984 7.99-8.483 7.768-10.618 7.768-13.133 0-11.821-12.687-5.143-12.687 5.09 0 4.432 4.47 2.461 4.694-.162 0-.271-.054-.327-.169-2.134-2.68-5.091 4.696 2.517 4.696 2.9 0 4.16-2.234 4.16-3.968 0-8.047-13.189-7.321-13.189-14.698 0-7.431 8.262-7.32 10.015-7.32 7.06 0 9.305 2.737 9.305 5.365.053 2.68-2.136 5.14-4.653 4.079a.667.667 0 0 1-.383-.392c-.055-.223 0-.391.163-.56 2.19-2.57.494-5.308-4.104-5.308-3.448 0-4.268 1.845-4.268 2.738 0 6.147 15.27 5.703 14.064 15.762zM48.912 64.142c.383 1.508-1.423 1.062-1.806.67-.876-.896-1.533-4.415-6.786-4.415h-.876v21.74c0 2.069.767 2.628 1.259 2.907.492.223.274.67 0 .67H31.89c-.218 0-.492-.447 0-.67.495-.279 1.259-.838 1.259-2.906v-21.74h-.82c-5.31 0-5.966 3.518-6.841 4.414-.383.392-2.187.838-1.75-.67.382-1.566 1.257-4.136 1.585-5.253.33-1.117.548-1.621 1.26-1.621h19.485c.654 0 .873.504 1.202 1.62a121.309 121.309 0 0 1 1.642 5.254zM70.898 85.715h-9.576c-.219 0-.44-.505 0-.67 1.641-.839.822-3.467.383-5.199l-8.592-2.85-1.697 4.806c-.548 2.236.601 3.019.93 3.242.328.224.219.67 0 .67h-7.17c-.274 0-.437-.391 0-.67.438-.336 1.917-.615 2.955-3.69l7.443-21.74c.218-1.006-.381-1.284-.764-1.62-.439-.392-.22-.726 0-.726h8.645c.274 0 .439.334 0 .725-.548.505-.875.728-.548 1.9l5.53 21.462c1.04 3.074 2.025 3.353 2.461 3.69.439.278.22.67 0 .67zm-10.233-10.06L57.6 63.806l-3.338 9.726 6.403 2.123zM90.54 85.715c-6.95 0-4.269-8.72-8.046-11.347h-1.256v7.77c0 2.068.764 2.628 1.256 2.906.492.224.22.67 0 .67H73.63c-.22 0-.492-.446 0-.67.493-.278 1.259-.838 1.259-2.906V59.893c0-1.172-.822-1.508-1.259-1.9-.438-.391-.22-.727 0-.727h11.986c11.274 0 10.781 14.812 1.75 16.88.219.503.493 1.062.711 1.732 1.697 4.807 4.982 3.856 5.474 2.458a.615.615 0 0 1 .931-.279c2.134 1.621 2.352 7.657-3.942 7.657zm-6.95-25.317h-2.352v10.785h2.078c6.512 0 7.39-10.785.274-10.785zM114.639 85.77h-15.87c-.22 0-.494-.504 0-.725.492-.281 1.258-.84 1.258-2.907V59.894c0-1.172-.822-1.509-1.258-1.9-.439-.392-.22-.728 0-.728h8.864c.22 0 .383.336 0 .728-.437.391-1.256.727-1.256 1.9v23.361h3.556c4.652 0 4.597-3.017 4.597-3.017 0-2.012-1.04-1.342-1.258-1.232-1.043.56-2.354-.165-2.299-1.674.109-1.342 1.094-2.906 3.557-2.906 6.349 0 5.363 11.344.109 11.344zM130.942 85.77h-8.864c-.22 0-.494-.504 0-.725.492-.281 1.258-.84 1.258-2.907V59.894c0-1.172-.821-1.509-1.258-1.9-.439-.392-.22-.728 0-.728h8.864c.22 0 .383.336 0 .728-.437.391-1.256.727-1.256 1.9v22.244c0 2.066.764 2.626 1.256 2.907.492.221.22.725 0 .725zM158.151 85.77h-6.184c-.218 0-.492-.504 0-.725.439-.226 1.093-.728 1.205-2.294 0-6.425-12.369-15.2-13.574-16.262v15.65c0 2.065.766 2.625 1.26 2.906.492.22.219.725 0 .725h-6.184c-.221 0-.492-.504 0-.725.492-.281 1.258-.84 1.258-2.907V59.894c0-1.173-.822-1.509-1.258-1.9-.985-.95.928-.728 1.258-.728h6.842c-1.314 4.751 7.113 9.502 10.451 13.804V59.894c0-1.173-.819-1.509-1.258-1.9-1.04-.95.931-.728 1.258-.728h4.926c.221 0 .439.336 0 .728-.438.391-1.258.727-1.258 1.9v22.244c0 2.066.766 2.626 1.258 2.907.493.22.221.725 0 .725zM182.546 71.462c0 7.936-4.87 14.254-10.837 14.254-5.966 0-10.836-6.317-10.836-14.254 0-7.823 4.87-14.195 10.836-14.195 5.967 0 10.837 6.372 10.837 14.195zm-6.293 0c0-6.146-2.027-11.176-4.544-11.176-2.518 0-4.543 5.03-4.543 11.176 0 6.205 2.025 11.234 4.543 11.234 2.517 0 4.544-5.03 4.544-11.234z"/>
        <path fill-rule="evenodd" clip-rule="evenodd" d="M90.881 0a.775.775 0 0 0-.72.542L86.428 12.41H74.55a.775.775 0 0 0-.472 1.389l9.634 7.31-3.661 11.924c-.125.41.107.84.519.965.24.072.499.026.7-.127l9.633-7.308 9.637 7.308a.781.781 0 0 0 1.091-.143.76.76 0 0 0 .125-.697l-3.728-11.98 9.696-7.25a.765.765 0 0 0 .154-1.082.783.783 0 0 0-.624-.31l-11.903.043L91.647.547A.777.777 0 0 0 90.881 0z"/>
        <path d="M69.898 18.93c-5.826.641-11.65.803-17.475 1.008-5.824.146-11.65-.104-17.474-.225-11.65-.197-23.3-.46-34.949-.783v-.226c11.65-.323 23.3-.584 34.95-.783 5.823-.122 11.649-.372 17.472-.223 5.827.203 11.65.365 17.476 1.006v.226zM183.561 18.93c-11.649.323-23.299.586-34.949.783-5.826.121-11.65.371-17.475.225-5.824-.205-11.65-.367-17.474-1.008v-.226c5.824-.641 11.65-.803 17.474-1.006 5.825-.149 11.649.101 17.475.223 11.65.2 23.3.46 34.949.783v.226zM30.246 110.787c-.065-.154-.1-.504-.14-.91a26.526 26.526 0 0 0-.06-.57l-.67-10.044c0-.138-.006-.274-.01-.41a8.895 8.895 0 0 1-.012-.43c0-.454.06-.728.387-.892.166-.091.381-.143.418-.145h.213v-.845l-2.36.143-.809.002-2.09-.14-1.722 4.864c-.63 1.763-1.279 3.577-1.93 5.428-.247-.678-.502-1.363-.752-2.033l-.237-.639c-.193-.529-.393-1.043-.594-1.557a819.155 819.155 0 0 1-1.755-4.608l-.526-1.389-.154.01c-1.59.088-3.265.08-4.9 0l-.224-.014v.767l.178.028c.387.065.587.119.755.352.217.285.193.83.154 1.735l-.628 10.288c-.083 1.097-.183 1.229-1.18 1.557l-.145.05.007.769.23-.02c.781-.062 1.59-.127 2.403-.127.796 0 1.61.043 2.397.084l.224.013v-.741l-.172-.034-.058-.009c-.8-.114-1.053-.412-1.13-.654-.073-.193-.06-.452-.054-.592l.005-.087c0-.406.02-.792.039-1.196l.002-.063c.035-.605.063-1.203.091-1.801l.08-1.603c.066-1.322.097-2.676.125-3.985l.002-.16c.35 1.015.705 2.035 1.07 3.045.394 1.061.814 2.111 1.216 3.128l.324.814c.43 1.132.935 2.467 1.407 3.787l.05.14h2.227l.052-.14c1.205-3.301 2.42-6.705 3.598-9.999l.297-.834c.022.551.046 1.104.074 1.662.076 1.831.194 3.782.368 6.136.065 1.421-.013 1.91-.622 2.195-.091.045-.274.108-.644.149l-.189.021v.845l.226-.015a47.106 47.106 0 0 1 3.067-.106c1.002 0 2.014.022 3.005.063l.222.01v-.749l-.243-.033c-.333-.034-.736-.125-.903-.511zM46.3 110.752a3.485 3.485 0 0 1-.301-.665l-4.792-13.263-.054-.149-.659.043c-.54.035-1.096.072-1.655.072-.776 0-1.588-.067-2.303-.126l-.23-.02v.681l.036.177.166.037c.513.115.621.166.621.454 0 .162-.013.246-.117.531l-4.076 11.435c-.171.475-.36.862-.498 1.026-.172.188-.448.285-.76.396l-.131.047-.046.719.3-.015a37.307 37.307 0 0 1 4.16-.011l.836.048v-.767l-.176-.03c-.905-.16-.95-.328-.95-.59 0-.302.119-.71.165-.866.01-.03.015-.052.019-.067l.816-2.385h4.465l.841 2.532c.087.229.183.525.183.767 0 .315-.085.402-1.007.611l-.165.037v.803l.226-.015a50.849 50.849 0 0 1 3.088-.106c.848 0 1.744.033 2.825.106l.229.015v-.758l-.14-.052c-.432-.164-.687-.272-.915-.652zm-8.237-7.571.22-.67a66.17 66.17 0 0 0 .632-2.185c.14.563.278 1.097.435 1.622.315 1.095.69 2.155 1.055 3.184l.02.056h-3.028c.222-.661.444-1.333.666-2.007zM61.286 110.08l-3.32-4.752c.708-.205 1.043-.339 1.473-.583 1.483-.823 2.408-2.27 2.408-3.78 0-.86-.29-1.797-.775-2.51-.804-1.169-2.207-1.79-4.169-1.853l-.104-.005c-.183 0-.365-.004-.548-.01-.185-.005-.372-.011-.56-.011h-7.583v.663l.024.181.176.03c.511.09.783.15.918.463.085.235.078.546.076.648l-.002 10.977c.022.909-.022 1.27-.29 1.477-.219.139-.489.219-.767.296l-.157.044.007.816.228-.015c.91-.063 1.851-.127 2.775-.127.827 0 1.67.056 2.486.11l.849.054v-.933h-.214c-.195 0-.746-.061-.95-.335-.19-.281-.202-.741-.202-1.413V99.045h1.522c.6 0 .837.02 1.131.06.568.104 1.592.428 2.055 1.424.192.442.2.889.2.974 0 .587-.165 1.116-.478 1.533-.624.832-1.657 1.082-2.486 1.21-.27.041-.572.063-.866.084-.206.011-.833.043-.833.488 0 .169.127.391.235.553.253.361.507.715.76 1.07.437.615.871 1.226 1.298 1.855.426.624.84 1.251 1.259 1.888l.34.512.845 1.447.13-.009a43.71 43.71 0 0 1 3.9-.026c.274.011.55.02.829.029l.22.004v-.808l-.157-.043c-.935-.262-1.094-.374-1.683-1.21zM78.358 110.752a3.479 3.479 0 0 1-.302-.665l-4.791-13.263-.055-.149-.659.043c-.54.035-1.096.072-1.655.072-.776 0-1.588-.067-2.303-.126l-.23-.02v.681l.036.177.166.037c.513.115.622.166.622.454 0 .162-.013.246-.118.531l-4.076 11.435c-.171.475-.36.862-.497 1.026-.172.188-.448.285-.762.396l-.13.047-.046.719.3-.015a37.306 37.306 0 0 1 4.16-.011l.836.048v-.767l-.176-.03c-.905-.16-.95-.328-.95-.59 0-.302.119-.71.165-.866.01-.03.015-.052.02-.067l.815-2.385h4.465l.841 2.532c.087.229.183.525.183.767 0 .315-.085.402-1.007.611l-.165.037v.803l.226-.015a50.844 50.844 0 0 1 3.088-.106c.849 0 1.745.033 2.825.106l.229.015v-.758l-.14-.052c-.432-.164-.687-.272-.915-.652zm-8.238-7.571.22-.67c.225-.734.434-1.455.632-2.185.14.563.279 1.097.435 1.622.316 1.095.69 2.155 1.055 3.184l.02.056h-3.028c.222-.661.444-1.333.666-2.007zM90.518 103.73c-.507-.285-1.133-.527-2.168-.836l-2.66-.758c-.705-.227-1.581-.51-1.888-1.231-.092-.221-.092-.424-.092-.521 0-1 1.21-1.434 1.236-1.443.25-.106.909-.285 1.805-.285 1.4 0 2.616.451 3.427 1.272.599.594.738 1.119.838 1.504l.058.218h.836l-.026-.236a39.86 39.86 0 0 1-.196-2.229c-.041-.646-.063-1.311-.085-1.957l-.024-.222-.152-.041c-1.634-.43-2.617-.692-4.374-.692-2.342 0-3.932.4-5.152 1.29-.58.419-1.931 1.603-1.955 3.553 0 .726.195 1.266.252 1.406.298.823 1.035 1.955 2.854 2.666.173.069.345.132.52.194.151.056.304.11.471.175l2.971.905c.659.199 1.279.415 1.649.918.278.361.28.821.28.84 0 .744-.463 1.314-1.385 1.7-.72.29-1.5.314-1.816.286h-.055c-.626 0-2.292 0-3.551-1.355-.794-.829-.922-1.59-1.01-2.108l-.028-.177h-.656l-.226.019.015.225c.065.963.13 1.922.172 2.881.01.311.017.623.021.934.007.313.011.626.022.939l.007.158.152.039c1.894.501 3.18.805 5.06.805h.088c3.458 0 5.193-1.237 6.041-2.276a4.494 4.494 0 0 0 1-2.845c0-2.156-1.428-3.255-2.276-3.715zM103.775 109.819c-2.22 0-4.034-1.387-4.852-3.715a6.246 6.246 0 0 1-.376-2.191c0-2.311 1.081-3.568 1.416-3.903a4.35 4.35 0 0 1 3.053-1.268c.994 0 1.882.337 2.569.979.844.76.95 1.57 1.013 2.056l.026.197h.881l-.004-.218c-.022-.759-.044-1.545-.022-2.299 0-.628.033-1.259.107-2.047l.015-.164-1.675-.577c-1.311-.303-1.696-.326-2.396-.372l-.377-.021c-1.759.13-2.407.237-3.308.548-2.322.843-4.086 2.737-4.836 5.195-.4 1.216-.4 2.244-.4 2.583 0 2.629 1.335 4.597 1.913 5.325.679.819 1.888 1.963 4.528 2.441.646.116 1.242.177 1.771.177.774 0 1.3-.091 2.707-.469l1.906-.799.53-3.089-.398.242c-1.231.745-2.292 1.389-3.791 1.389zM124.463 110.331V98.796c.022-.76.144-.98.35-1.116.174-.104.483-.182.542-.186h.213v-.875l-.235.024c-1.425.149-2.042.19-2.753.19-1.083 0-2.145-.102-2.947-.19l-.224-.024-.044.812.181.037c.021.004.054.009.098.013.152.02.471.06.665.21.302.215.324.6.324 1.12v3.923h-5.711v-3.916c.02-.69.104-.886.285-1.063.148-.147.272-.224.746-.285l.185-.024v-.818l-2.86.183h-.107c-.448 0-.913-.017-1.361-.036l-.083-.003c-.339-.015-.668-.047-.998-.08l-.533-.05-.215-.019-.046.75.163.047c.94.273 1.018.376 1.038 1.37l.002 11.372c-.083.946-.148 1.026-1.009 1.234l-.153.036-.045.767.243-.021a34.368 34.368 0 0 1 2.932-.149c.942 0 1.886.086 2.799.17l.233.022v-.84l-.179-.031c-.617-.103-.783-.201-.896-.354-.141-.231-.141-.492-.141-.795v-4.825h5.755l.002 4.689c-.024.477-.07.925-.398 1.119-.174.104-.392.143-.683.188l-.181.026v.775l.229-.017c.913-.063 1.857-.127 2.803-.127.988 0 1.997.09 2.886.17l.218.02.045-.733-.165-.045c-.859-.238-.913-.3-.97-1.11zM128.258 96.688l-.291-.013v.843l.224.047c.258.054.552.117.704.25.231.18.287.638.307 1.366v10.465c.022.847-.07 1.251-.322 1.441-.185.134-.661.25-.722.259h-.213v.842l2.577-.116.705-.002 2.955.14v-.819l-.165-.038c-.465-.108-.633-.212-.748-.309-.089-.065-.181-.177-.239-.555-.022-.277-.02-.551-.02-.826V99.22c0-.249 0-.767.081-1.054.106-.489.556-.594.902-.631l.189-.022v-.864l-.228.015c-2.251.152-3.839.106-5.696.024zM149.95 96.77a49.39 49.39 0 0 1-2.491-.082l-.28-.015v.864h.213c.198 0 .861.034 1.09.486.117.231.152.665.171 1.244l.131 5.495.076 2a42.752 42.752 0 0 0-1.074-1.626 110.3 110.3 0 0 0-1.888-2.782l-3.928-5.722-.185.015c-.789.065-1.533.123-2.329.123-.883 0-1.781-.043-2.656-.084l-.224-.01v.84h.214c.171 0 .513.043.706.207.12.101.231.257.253.728.041.309.041.637.041.985v9.858c-.02 1.125-.046 1.592-.441 1.849-.14.088-.238.123-.616.186l-.178.028v.784l.219-.004c.263-.009.531-.018.801-.029a46.777 46.777 0 0 1 3.997.046l.287.015v-.879l-.206-.007c-.599-.021-.733-.084-.916-.233-.337-.266-.398-.622-.418-1.626l-.087-6.977-.047-2.057c.23.368.465.728.7 1.08.313.46.635.921.959 1.385l.583.836c.457.639.898 1.289 1.34 1.935l4.491 6.482.063.093h2.947V99.392c0-.626.019-1.097.117-1.352.137-.393.646-.473.861-.507l.163-.033.042-.857-.242.021c-.846.072-1.585.106-2.259.106zM165.866 97.055c-1.044-.576-2.21-.868-3.465-.868-2.273 0-4.554.866-5.957 2.257-1.32 1.292-2.114 3.184-2.231 5.333-.118 2.489.735 4.875 2.336 6.547 1.415 1.471 3.123 2.156 5.376 2.156 2.303 0 3.808-.793 4.497-1.261a6.731 6.731 0 0 0 1.74-1.666 8.092 8.092 0 0 0 1.695-4.992c0-2.577-1.049-5.9-3.991-7.506zm-3.571 12.891c-.842 0-1.59-.278-2.223-.827-.805-.708-1.238-1.719-1.525-2.519-.463-1.33-.648-2.568-.552-3.682.187-2.549 1.661-3.513 2.279-3.804a3.92 3.92 0 0 1 1.542-.329c1.118 0 1.847.46 2.266.852.885.773 1.579 2.313 1.86 4.11l.009.063c.032.248.119.909.119 1.503 0 3.059-1.651 4.104-2.627 4.452-.383.121-.77.181-1.148.181zM122.846 43.682c.543 0 .97.044 1.302.187.587.253.965.848.965 1.58 0 1.167-.793 1.839-2.323 1.839h-1.247v-.143c.205-.018.283-.1.283-.314v-2.693c0-.213-.078-.296-.283-.313v-.143h1.303zm-.227 3.127c.066.005.133.005.199.005.954 0 1.447-.451 1.447-1.304 0-.865-.516-1.36-1.452-1.36-.061 0-.128 0-.194.006v2.653zM127.895 43.71c.15 0 .327-.012.527-.039.044.154.089.298.138.425l1.009 2.696c.089.237.16.353.343.369v.143a4.605 4.605 0 0 0-.664-.055 6.58 6.58 0 0 0-.732.055v-.143c.183-.016.25-.055.25-.187a.503.503 0 0 0-.017-.11l-.233-.7h-1.13l-.205.611a.68.68 0 0 0-.034.188c0 .127.078.192.233.198v.143a3.948 3.948 0 0 0-.577-.05c-.172 0-.355.012-.548.05v-.143c.222-.022.26-.187.365-.474l.931-2.575a.463.463 0 0 0 .039-.166c0-.088-.066-.132-.21-.137v-.138c.177.027.343.039.515.039zm-.349 2.008h.826l-.416-1.265-.41 1.265zM131.803 43.72c.189 0 .432-.015.721-.049v.138c-.233 0-.322.093-.322.319v2.664h1.026c.387 0 .576-.188.647-.605l.123.016a7.34 7.34 0 0 0-.111 1.084h-2.761v-.142c.206-.018.284-.1.284-.314v-2.703c0-.215-.078-.303-.284-.32v-.137c.234.034.456.05.677.05zM138.751 47.16c.295-.038.3-.137.3-.422v-2.263c0-.369-.011-.446-.355-.474v-.143c.382-.038.765-.153 1.175-.324-.027.264-.045.5-.045.699v2.505c0 .275.012.39.273.423v.143a3.419 3.419 0 0 0-.677-.055c-.172 0-.399.017-.671.055v-.143zM142.987 47.238a3.39 3.39 0 0 0 1.203-1.536.992.992 0 0 1-.715.275c-.631 0-1.103-.472-1.103-1.128 0-.716.587-1.255 1.309-1.255.759 0 1.335.616 1.335 1.502 0 .964-.665 1.889-1.857 2.406l-.172-.264zm.167-2.565c0 .506.261.82.582.82.277 0 .493-.247.493-.638 0-.48-.266-.81-.582-.81-.299 0-.493.232-.493.628zM149.334 45.482c0 1.129-.587 1.894-1.341 1.894-.793 0-1.374-.76-1.374-1.9 0-1.15.571-1.887 1.374-1.887.743 0 1.341.754 1.341 1.893zm-1.912 0c0 .941.2 1.42.555 1.42.355 0 .548-.484.548-1.42 0-.946-.188-1.425-.554-1.425-.36 0-.549.479-.549 1.425zM152.816 43.693c-.399.419-.748.87-.964 1.437a.88.88 0 0 1 .698-.314c.599 0 1.087.48 1.087 1.156 0 .766-.594 1.387-1.369 1.387-.699 0-1.275-.567-1.275-1.426 0-.914.581-1.788 1.685-2.411l.138.17zm-1.036 2.367c0 .518.25.826.56.826.288 0 .509-.275.509-.727 0-.5-.243-.82-.559-.82-.305 0-.51.264-.51.72zM78.943 42.338v6.178l.722.864v.182h-3.343v-.182l.723-.864v-2.225h-3.246v2.225l.723.864v.182h-3.343v-.182l.722-.864v-6.178l-.722-.864v-.182h3.343v.182l-.723.864v2.31h3.246v-2.31l-.723-.864v-.182h3.343v.182l-.722.864zM90.17 45.427c0 2.348-1.825 4.318-4.385 4.318-2.56 0-4.384-1.97-4.384-4.318 0-2.36 1.825-4.318 4.384-4.318 2.56 0 4.385 1.958 4.385 4.318zm-6.859 0c0 1.411 1.03 2.53 2.474 2.53 1.445 0 2.474-1.119 2.474-2.53 0-1.423-1.029-2.53-2.474-2.53-1.445 0-2.474 1.107-2.474 2.53zM98.675 43.554h-.22l-.808-.62h-1.47v5.51l.76.936v.182H93.52v-.182l.759-.949v-5.497h-1.47l-.808.62h-.209v-2.262h6.883v2.262zM107.118 47.166v2.397h-6.025v-.183l.723-.864v-6.178l-.723-.864v-.182h5.927v2.31h-.196l-.955-.668h-2.155v1.763h1.837l.649-.316h.171v2.031h-.171l-.649-.316h-1.837v1.825h2.437l.784-.755h.183zM116.033 49.563h-6.307v-.183l.723-.864v-6.178l-.723-.864v-.182h3.343v.182l-.723.864v5.583h2.56l.943-1.034h.184v2.675zM29.719 44.935h-.115c-.098-.444-.51-.734-1.04-.734-.412 0-.646.187-.646.48 0 .337.313.404.931.6.698.217 1.052.486 1.052.982 0 .57-.557 1.06-1.514 1.06-.417 0-.838-.083-1.203-.233.006-.206.006-.383.006-.526 0-.073-.006-.248-.016-.544h.104c.084.538.505.864 1.083.864.468 0 .75-.208.75-.486 0-.356-.303-.419-.89-.61-.71-.227-1.063-.481-1.063-.998 0-.59.516-1.018 1.406-1.018.426 0 .811.072 1.118.201 0 .305.011.626.037.962zM33.284 43.855c0 .294.011.579.037.847h-.114c-.032-.341-.147-.393-.537-.393H31.62v.931h.687c.255 0 .344-.052.359-.27h.1c-.012.218-.021.383-.021.497 0 .15.004.316.015.496h-.104c-.01-.222-.1-.268-.35-.268h-.686v1.08h1.166c.38 0 .494-.114.542-.532h.124c-.041.35-.073.682-.089.997H30.61v-.134c.193-.016.266-.093.266-.294v-2.529c0-.2-.073-.279-.266-.294v-.134h2.675zM34.794 43.892c.176 0 .406-.017.676-.048v.13c-.218 0-.302.087-.302.3v2.501h.963c.364 0 .541-.176.608-.568l.115.015a6.994 6.994 0 0 0-.104 1.018h-2.592v-.134c.194-.016.266-.093.266-.294v-2.538c0-.202-.072-.285-.266-.3v-.13c.22.031.427.047.636.047zM40.144 43.855c0 .294.01.579.037.847h-.115c-.032-.341-.146-.393-.537-.393h-1.05v.931h.686c.255 0 .344-.052.359-.27h.1c-.011.218-.021.383-.021.497 0 .15.004.316.015.496h-.104c-.01-.222-.1-.268-.349-.268h-.687v1.08h1.166c.38 0 .494-.114.542-.532h.124c-.04.35-.072.682-.089.997h-2.753v-.134c.193-.016.266-.093.266-.294v-2.529c0-.2-.073-.279-.266-.294v-.134h2.676zM43.89 43.855l-1.848 2.92h1.24c.364 0 .505-.124.577-.501h.13a6.67 6.67 0 0 0-.098.966h-2.926l1.848-2.92h-.958c-.353 0-.473.068-.535.377h-.115c.041-.274.068-.553.078-.842h2.608zM45.348 43.892c.208 0 .42-.017.64-.048v.13c-.193.015-.266.098-.266.3v2.547c0 .202.073.285.265.3v.134a4.985 4.985 0 0 0-.639-.051c-.198 0-.412.021-.636.051v-.134c.194-.015.266-.098.266-.3v-2.547c0-.202-.072-.285-.266-.3v-.13c.22.031.427.047.636.047zM48.513 43.767c.42 0 .79.14 1.103.424.374.34.593.847.593 1.41 0 1.009-.702 1.737-1.733 1.737a1.57 1.57 0 0 1-1.103-.429c-.375-.345-.594-.858-.594-1.426 0-1.003.713-1.716 1.734-1.716zm-.947 1.535c0 .951.425 1.556.999 1.556.52 0 .858-.408.858-1.086 0-.925-.416-1.53-.99-1.53-.54 0-.867.388-.867 1.06zM51 47.121c.245-.015.26-.134.26-.418v-2.368c0-.258-.036-.33-.26-.362v-.129c.194.026.375.037.562.037.183 0 .38-.011.583-.037l1.53 2.332v-1.83c0-.28-.072-.367-.343-.373v-.129c.203.026.39.037.556.037.172 0 .344-.011.522-.037v.13c-.209.015-.266.087-.266.346v2.92h-.572l-1.843-2.75v2.218c0 .305.068.398.359.413v.13a3.686 3.686 0 0 0-.531-.047 3.53 3.53 0 0 0-.557.047v-.13zM57.813 43.855c0 .294.01.579.036.847h-.114c-.032-.341-.146-.393-.537-.393h-1.05v.931h.686c.255 0 .344-.052.359-.27h.1c-.011.218-.021.383-.021.497 0 .15.004.316.015.496h-.104c-.01-.222-.1-.268-.35-.268h-.686v1.08h1.166c.38 0 .494-.114.542-.532h.124c-.04.35-.072.682-.088.997h-2.754v-.134c.194-.016.266-.093.266-.294v-2.529c0-.2-.072-.279-.266-.294v-.134h2.676zM61.82 43.855c.51 0 .91.04 1.222.175.552.239.907.797.907 1.484 0 1.096-.745 1.726-2.182 1.726h-1.17v-.134c.193-.016.265-.093.265-.294v-2.529c0-.2-.072-.279-.266-.294v-.134h1.223zm-.214 2.935c.063.006.126.006.187.006.896 0 1.358-.423 1.358-1.225 0-.812-.483-1.277-1.362-1.277-.057 0-.12 0-.183.006v2.49zM65.37 43.892c.208 0 .421-.017.64-.048v.13c-.193.015-.265.098-.265.3v2.547c0 .202.072.285.266.3v.134a5.015 5.015 0 0 0-.64-.051 4.86 4.86 0 0 0-.636.051v-.134c.192-.015.266-.098.266-.3v-2.547c0-.202-.074-.285-.266-.3v-.13c.22.031.427.047.636.047zM180.304 57.828v-.593h2.596v.593h-.937v2.793h-.691v-2.793h-.968zm3.256-.64h.061l1.659 1.784 1.659-1.783H187v3.432h-.675v-1.983l-1.045 1.19-1.029-1.19v1.983h-.691v-3.432z"/>
    </g>
    <defs>
        <clipPath id="ad4huomoqa">
            <path fill="#fff" d="M0 0h187v157H0z"/>
        </clipPath>
    </defs>
</svg>
