<svg width="35" height="24" viewBox="0 0 35 24" fill="none" xmlns="http://www.w3.org/2000/svg">
    <rect x=".712" width="33.856" height="23.331" rx="4" fill="#fff"/>
    <path fill-rule="evenodd" clip-rule="evenodd" d="M10.972 8.706c-.246.295-.64.527-1.034.494-.05-.398.143-.821.37-1.083.245-.302.676-.518 1.025-.534.041.414-.119.82-.361 1.123zm.357.572c-.347-.02-.664.106-.92.207-.164.066-.304.121-.41.121-.119 0-.264-.058-.427-.124-.213-.085-.458-.183-.714-.179a1.684 1.684 0 0 0-1.432.88c-.616 1.07-.16 2.653.435 3.524.291.431.64.904 1.1.887.202-.008.348-.07.498-.134.174-.075.354-.152.635-.152.271 0 .443.075.609.147.157.069.308.135.532.13.476-.007.775-.43 1.067-.862.314-.462.453-.914.473-.983l.003-.008-.011-.005c-.105-.049-.909-.42-.917-1.417-.007-.836.638-1.26.74-1.327a.316.316 0 0 0 .011-.008c-.41-.614-1.05-.68-1.272-.697zm3.296 5.262V8.076h2.4c1.24 0 2.106.862 2.106 2.123 0 1.26-.882 2.131-2.138 2.131h-1.375v2.21h-.993zm.993-5.618h1.145c.862 0 1.355.464 1.355 1.281s-.493 1.286-1.359 1.286h-1.14V8.921zm6.793 4.843c-.263.506-.842.825-1.466.825-.923 0-1.567-.556-1.567-1.393 0-.83.623-1.306 1.777-1.377l1.24-.074v-.357c0-.527-.341-.813-.949-.813-.5 0-.866.261-.94.66h-.894c.028-.838.808-1.448 1.863-1.448 1.137 0 1.876.602 1.876 1.535v3.217h-.92v-.775h-.02zm-1.199.058c-.53 0-.866-.257-.866-.651 0-.406.325-.643.944-.68l1.104-.07v.364c0 .606-.509 1.037-1.182 1.037zm5.188.97c-.398 1.132-.854 1.505-1.822 1.505-.074 0-.32-.008-.378-.024v-.776c.062.008.214.017.292.017.439 0 .685-.187.837-.672l.09-.286-1.683-4.706h1.039l1.17 3.818h.02l1.17-3.818h1.01L26.4 14.793z" fill="#000"/>
</svg>
