<svg width="35" height="24" viewBox="0 0 35 24" fill="none" xmlns="http://www.w3.org/2000/svg">
    <rect x=".856" width="33.856" height="23.331" rx="4" fill="#fff"/>
    <path d="M20.884 16.901H14.84V6.131h6.043v10.77z" fill="#FF5F00"/>
    <path d="M15.229 11.515a6.818 6.818 0 0 1 2.637-5.384 6.912 6.912 0 0 0-4.268-1.465c-3.813 0-6.905 3.067-6.905 6.85 0 3.782 3.092 6.849 6.905 6.849 1.611 0 3.094-.548 4.268-1.465a6.817 6.817 0 0 1-2.637-5.384z" fill="#EB001B"/>
    <path d="M29.033 11.515c0 3.783-3.092 6.85-6.905 6.85a6.914 6.914 0 0 1-4.269-1.465 6.817 6.817 0 0 0 2.638-5.384A6.817 6.817 0 0 0 17.86 6.13a6.914 6.914 0 0 1 4.268-1.465c3.814 0 6.906 3.067 6.906 6.85z" fill="#F79E1B"/>
</svg>
