<svg width="34" height="24" viewBox="0 0 34 24" fill="none" xmlns="http://www.w3.org/2000/svg">
    <rect width="33.856" height="23.331" rx="4" fill="#F4B6C7"/>
    <path fill-rule="evenodd" clip-rule="evenodd" d="M4.327 15.046H2.918V8.75h1.409v6.297zM7.845 8.75H6.467c0 1.159-.52 2.223-1.425 2.918l-.547.42 2.116 2.96h1.74l-1.947-2.724A5.075 5.075 0 0 0 7.845 8.75zm2.247 6.295h-1.33V8.75h1.33v6.294zm4.02-4.354v.279a2.189 2.189 0 0 0-1.26-.399c-1.236 0-2.24 1.029-2.24 2.298 0 1.268 1.004 2.297 2.24 2.297.468 0 .901-.148 1.26-.399v.278h1.271V10.69h-1.27zm-.004 2.178c0 .618-.516 1.12-1.152 1.12-.636 0-1.151-.502-1.151-1.12 0-.62.515-1.12 1.152-1.12.635 0 1.151.5 1.151 1.12zm13.412-1.899v-.278h1.27v4.353h-1.27v-.278a2.19 2.19 0 0 1-1.26.399c-1.237 0-2.24-1.029-2.24-2.297 0-1.27 1.003-2.298 2.24-2.298.467 0 .9.148 1.26.399zm-1.156 3.019c.636 0 1.151-.502 1.151-1.12 0-.62-.515-1.12-1.151-1.12s-1.152.5-1.152 1.12c0 .618.516 1.12 1.152 1.12zm2.978.33c0-.452.357-.818.798-.818.44 0 .797.366.797.818a.808.808 0 0 1-.797.818.808.808 0 0 1-.798-.818zm-7.58-3.745c-.508 0-.988.162-1.31.608v-.49h-1.265v4.353h1.281v-2.288c0-.662.433-.986.954-.986.559 0 .88.342.88.977v2.297h1.269v-2.768c0-1.014-.785-1.703-1.81-1.703zm-4.413.117v.568c.255-.34.73-.567 1.246-.567v1.267h-.015c-.503 0-1.228.368-1.228 1.054v2.032h-1.304V10.69h1.301z" fill="#17120F"/>
</svg>
