<svg width="35" height="24" viewBox="0 0 35 24" fill="none" xmlns="http://www.w3.org/2000/svg">
    <rect x=".568" width="33.856" height="23.331" rx="4" fill="#fff"/>
    <path d="M15.6 16h-2.254l1.41-8.165h2.253L15.6 16zM23.77 8.034a5.885 5.885 0 0 0-2.02-.347c-2.227 0-3.794 1.112-3.804 2.701-.018 1.173 1.122 1.825 1.976 2.216.872.4 1.168.66 1.168 1.017-.009.547-.705.799-1.354.799-.9 0-1.382-.13-2.114-.435l-.297-.13-.316 1.833c.529.226 1.503.426 2.514.435 2.365 0 3.905-1.095 3.923-2.79.01-.929-.593-1.641-1.892-2.223-.788-.374-1.271-.626-1.271-1.008.01-.348.408-.704 1.298-.704a4.05 4.05 0 0 1 1.68.313l.203.087.307-1.764z" fill="#15195A"/>
    <path fill-rule="evenodd" clip-rule="evenodd" d="M27.805 7.835h1.744L31.367 16H29.28s-.204-.939-.269-1.225h-2.893L25.643 16H23.28l3.348-7.489c.232-.53.64-.677 1.178-.677zm-.138 2.988-.9 2.285h1.873c-.093-.408-.52-2.363-.52-2.363l-.157-.704a42.847 42.847 0 0 1-.296.782zM9.255 13.403l2.208-5.568h2.383l-3.543 8.157H7.92L5.91 8.897A9.55 9.55 0 0 0 3.543 8l.037-.165h3.627c.491.017.89.165 1.02.686l.788 3.752.241 1.13z" fill="#15195A"/>
</svg>
