<svg width="185" height="120" viewBox="0 0 185 120" fill="none" xmlns="http://www.w3.org/2000/svg">
    <g clip-path="url(#rt6lgpecka)" fill="#fff">
        <path d="M45.581 103.038c-.733-.56-1.168-1.315-1.295-2.251-.217-1.62.521-3.636 2.077-5.677 2.457-3.224 5.493-4.335 7.556-2.763 1.691 1.289 1.54 3.33 1.538 3.349l-.017.226 2.408-3.158.058-.075-.088-.028c-.123-.041-.243-.134-.332-.2-.28-.213-.516-.483-.79-.797-.384-.439-.821-.936-1.538-1.48-3.563-2.72-8.217-1.591-11.571 2.806-1.652 2.168-2.513 4.41-2.49 6.486.024 2.148.999 4.016 2.821 5.405 1.08.822 2.406 1.42 3.462 1.56l.039.007 2.02-2.654.12-.16-.188.054c-.022.009-2.154.594-3.79-.65zM69.75 98.39l.084-.064-3.793-1.817-.101-.047.006.112c.039.663-.258 1.645-.908 2.996l-1.783 3.724-4.407-2.107 1.786-3.724c.633-1.32 1.218-2.193 1.745-2.598l.084-.065-3.892-1.864.004.112c.034.64-.26 1.587-.93 2.984l-5.123 10.691c-.64 1.337-1.247 2.243-1.753 2.616l-.088.066 3.797 1.813.097.045-.002-.108c-.022-.637.303-1.677.94-3.005l2.276-4.748 4.405 2.105-2.279 4.753c-.632 1.321-1.23 2.198-1.773 2.602l-.088.067 3.886 1.86.004-.101c.011-.308.039-1.126.94-3.012l5.121-10.687c.633-1.318 1.218-2.191 1.745-2.598zM70.745 98.59l.023.106c.157.67.063 1.748-.269 3.119l-2.797 11.465c-.335 1.377-.753 2.393-1.207 2.936l-.09.109h.165c.586 0 1.257.084 1.892.242.761.187 1.527.454 2.338.738.939.329 1.907.667 3.013.938a11.61 11.61 0 0 0 2.528.321h.047l1.018-2.583-.116.022c-.618.096-1.956-.074-3.602-.476-1.085-.267-2.369-.717-2.928-.917l1.372-5.62 1.468.359c1.211.295 2.394.799 3.1 1.169l.06.032 1.388-2.944.043-.093-.103-.002c-.824-.004-2.362-.168-3.415-.424l-1.962-.48 1.16-4.749 3.27.801c1.214.297 2.513.837 3.118 1.195l.097.058.103-2.889.002-.054-9.613-2.352-.103-.026zM91.204 116.018c-.63-1.742-1.282-3.543-2.35-4.581 2.516-.667 4.01-2.348 4.11-4.628.069-1.591-.609-2.944-1.958-3.911-1.186-.85-2.838-1.36-4.654-1.44l-4.247-.183-.112-.004.052.101c.187.368.395 1.207.312 3.108l-.517 11.83c-.062 1.477-.26 2.51-.585 3.072l-.054.095 4.207.181.107.004-.045-.099c-.273-.586-.38-1.634-.316-3.113l.204-4.658c1.728.618 2.057 2.45 2.378 4.221.262 1.466.535 2.982 1.6 3.797l.017.013 3.863.168.234.009-.196-.129c-.871-.588-1.443-2.174-2.05-3.853zm-1.633-9.265c-.041.982-.437 1.718-1.177 2.187-.542.342-1.263.528-2.046.528-.071 0-.144 0-.218-.005l-.67-.026.249-5.708.671.03c.867.037 1.65.291 2.208.715.697.531 1.026 1.298.983 2.279zM106.183 114.337c-.962-1.583-1.956-3.221-3.206-4.028 2.296-1.134 3.456-3.125 3.105-5.349-.245-1.576-1.177-2.77-2.692-3.453-1.329-.598-3.049-.772-4.84-.49l-4.196.658-.112.018.07.088c.259.325.629 1.106.926 2.988l1.837 11.705c.23 1.466.241 2.518.035 3.125l-.035.104 4.153-.655.108-.017-.065-.086c-.383-.51-.693-1.513-.925-2.985l-.723-4.609c1.814.263 2.5 1.995 3.165 3.67.548 1.386 1.114 2.818 2.317 3.41l.019.008 4.048-.637-.216-.088c-.97-.405-1.846-1.849-2.773-3.377zm-6.926-5.319-.889-5.646.663-.108c.859-.129 1.676-.041 2.305.269.787.383 1.263 1.07 1.415 2.043.153.971-.09 1.769-.721 2.376-.505.484-1.256.827-2.112.962l-.66.104zM114.774 112.55l-3.582-11.288c-.445-1.403-.607-2.443-.482-3.089l.022-.11-4.011 1.275-.103.032.075.078c.465.471.923 1.418 1.366 2.811l3.583 11.285c.632 2 .544 2.807.51 3.111l-.011.101 4.002-1.272.105-.032-.077-.078c-.484-.478-.953-1.429-1.397-2.824zM128.274 106.958c-.396.469-1.545 1.197-3.073 1.943-.951.463-2.162.926-2.838 1.171l-2.536-5.194 1.357-.663a14.46 14.46 0 0 1 3.131-1.091l.069-.015-.842-3.248-.081.064c-.642.53-1.933 1.391-2.896 1.86l-1.816.891-2.143-4.39 3.025-1.48c1.127-.548 2.472-.966 3.165-1.08l.109-.017-1.766-2.286-.032-.043-8.992 4.397.084.067c.553.418 1.171 1.306 1.784 2.57l5.179 10.593c.622 1.274.949 2.32.949 3.03v.142l.109-.092a8.14 8.14 0 0 1 1.625-1.04c.705-.346 1.469-.63 2.276-.934.927-.346 1.889-.706 2.911-1.205a11.373 11.373 0 0 0 2.148-1.376l.036-.028-.867-2.637-.075.091zM135.247 94.65c-1.323-.181-2.726.047-3.961.243-1.833.293-3.412.542-4.196-.51-.658-.887-.284-2.127.908-3.018 1.453-1.08 2.875-.967 4.194-.676l.174.039-2.502-3.362-.052-.072-.054.07a2.852 2.852 0 0 1-.574.563c-.26.194-.532.304-.874.442-.523.208-1.17.469-2.113 1.17-1.125.838-1.914 1.957-2.229 3.154-.335 1.29-.094 2.536.7 3.603 1.714 2.308 4.408 1.94 6.79 1.619 2.061-.28 4.009-.545 5.074.891.428.573.559 1.227.385 1.888-.17.654-.626 1.27-1.313 1.782-2.091 1.565-4.664.758-5.671.347l-.222-.093 2.472 3.322.02.025.03.003c.178.013.357.021.535.021 1.502 0 2.948-.512 4.304-1.522 1.562-1.164 2.504-2.596 2.723-4.143a4.98 4.98 0 0 0-.92-3.651c-.919-1.236-2.105-1.933-3.628-2.135zM38.473 94.354a2.642 2.642 0 1 0 0-5.284 2.642 2.642 0 0 0 0 5.284zM142.155 94.354a2.642 2.642 0 0 0 2.641-2.643 2.642 2.642 0 1 0-2.641 2.643zM21.472 41.722c-.974 7.962-8.392 7.742-10.505 7.742-12.992 0-11.694-12.644-5.087-12.644 5.034 0 4.384 4.455 2.435 4.678-.161 0-.27-.053-.324-.168-2.111-2.671-5.037 4.68 2.49 4.68 2.868 0 4.115-2.227 4.115-3.955 0-8.019-13.048-7.295-13.048-14.646 0-7.407 8.174-7.296 9.908-7.296 6.985 0 9.206 2.728 9.206 5.347.052 2.671-2.113 5.122-4.603 4.064a.662.662 0 0 1-.379-.39c-.055-.222 0-.39.16-.557 2.167-2.562.49-5.29-4.06-5.29-3.41 0-4.221 1.838-4.221 2.728 0 6.126 15.105 5.683 13.913 15.707zM48.389 27.464c.379 1.503-1.408 1.058-1.787.668-.866-.893-1.516-4.4-6.713-4.4h-.866v21.665c0 2.061.758 2.619 1.245 2.896.486.223.27.668 0 .668h-8.719c-.215 0-.486-.445 0-.668.49-.277 1.245-.835 1.245-2.896V23.732h-.81c-5.253 0-5.903 3.507-6.769 4.4-.379.39-2.163.835-1.732-.668.38-1.56 1.245-4.122 1.57-5.235.325-1.113.541-1.616 1.246-1.616h19.276c.648 0 .864.503 1.19 1.616a121.669 121.669 0 0 1 1.624 5.235zM70.14 48.962h-9.474c-.216 0-.434-.503 0-.668 1.624-.836.813-3.454.38-5.18l-8.501-2.841-1.679 4.79c-.542 2.228.595 3.008.921 3.23.324.223.216.669 0 .669h-7.094c-.271 0-.432-.39 0-.668.434-.335 1.897-.613 2.923-3.677l7.364-21.665c.216-1.003-.377-1.28-.756-1.616-.434-.39-.218-.723 0-.723h8.553c.27 0 .434.333 0 .724-.542.502-.866.725-.542 1.893l5.47 21.387c1.03 3.064 2.003 3.342 2.435 3.677.434.277.218.668 0 .668zM60.016 38.937l-3.032-11.808-3.302 9.692 6.334 2.116zM89.572 48.962c-6.876 0-4.224-8.69-7.96-11.308h-1.243v7.743c0 2.061.756 2.619 1.243 2.897.487.222.218.668 0 .668h-8.77c-.217 0-.486-.446 0-.668.488-.278 1.246-.836 1.246-2.897V23.23c0-1.168-.813-1.503-1.245-1.893-.434-.39-.218-.726 0-.726H84.7c11.152 0 10.665 14.762 1.731 16.823.216.5.487 1.058.703 1.726 1.679 4.79 4.929 3.841 5.416 2.448.16-.387.594-.5.92-.277 2.111 1.615 2.327 7.63-3.9 7.63zm-6.876-25.23h-2.327V34.48h2.056c6.442 0 7.31-10.747.27-10.747zM113.413 49.017h-15.7c-.218 0-.49-.502 0-.723.487-.28 1.245-.837 1.245-2.896V23.23c0-1.168-.813-1.503-1.245-1.893-.434-.39-.218-.725 0-.725h8.769c.218 0 .379.335 0 .725-.432.39-1.243.725-1.243 1.893v23.281h3.519c4.602 0 4.547-3.007 4.547-3.007 0-2.005-1.029-1.337-1.245-1.227-1.031.557-2.329-.166-2.273-1.669.107-1.338 1.081-2.896 3.518-2.896 6.281 0 5.305 11.305.108 11.305zM129.541 49.017h-8.769c-.218 0-.489-.502 0-.723.487-.28 1.245-.837 1.245-2.896V23.23c0-1.168-.813-1.503-1.245-1.893-.434-.39-.218-.725 0-.725h8.769c.218 0 .379.335 0 .725-.432.39-1.242.725-1.242 1.893v22.168c0 2.059.755 2.616 1.242 2.896.487.22.218.723 0 .723zM156.46 49.017h-6.119c-.216 0-.487-.502 0-.723.434-.225 1.082-.725 1.192-2.285 0-6.404-12.236-15.148-13.428-16.206v15.595c0 2.059.758 2.616 1.247 2.896.487.22.216.723 0 .723h-6.119c-.218 0-.487-.502 0-.723.487-.28 1.245-.837 1.245-2.896V23.23c0-1.168-.813-1.503-1.245-1.893-.974-.945.919-.725 1.245-.725h6.768c-1.299 4.735 7.038 9.47 10.34 13.756V23.23c0-1.168-.811-1.503-1.245-1.893-1.029-.945.921-.725 1.245-.725h4.874c.218 0 .434.335 0 .725-.434.39-1.245.725-1.245 1.893v22.168c0 2.059.758 2.616 1.245 2.896.487.22.218.723 0 .723zM180.594 34.759c0 7.909-4.819 14.204-10.721 14.204-5.903 0-10.721-6.295-10.721-14.204 0-7.796 4.818-14.146 10.721-14.146 5.902 0 10.721 6.35 10.721 14.146zm-6.227 0c0-6.125-2.005-11.138-4.494-11.138-2.492 0-4.495 5.013-4.495 11.138 0 6.183 2.003 11.195 4.495 11.195 2.489 0 4.494-5.012 4.494-11.195zM29.922 73.947c-.064-.153-.099-.502-.137-.907-.017-.176-.037-.37-.06-.568l-.663-10.01c0-.137-.007-.272-.01-.408a9.106 9.106 0 0 1-.012-.428c0-.452.059-.726.383-.89.164-.09.377-.142.414-.144h.21v-.841l-2.334.142-.8.002-2.068-.14-1.704 4.848a992.328 992.328 0 0 0-1.909 5.409c-.245-.676-.497-1.358-.744-2.026l-.235-.637c-.191-.527-.39-1.04-.587-1.552a826.321 826.321 0 0 1-1.736-4.591l-.521-1.384-.153.008a46.71 46.71 0 0 1-4.848 0l-.221-.012v.764l.176.028c.383.064.581.118.747.35.215.285.191.827.153 1.729L12.64 72.94c-.082 1.094-.18 1.225-1.166 1.552l-.144.05.006.766.228-.02c.773-.062 1.573-.126 2.378-.126.787 0 1.592.043 2.37.084l.222.013v-.739l-.17-.034-.058-.009c-.792-.114-1.041-.41-1.116-.652-.074-.191-.06-.45-.054-.59l.004-.086c0-.404.02-.79.039-1.192l.002-.063c.034-.602.062-1.199.09-1.795.026-.53.052-1.061.08-1.597.064-1.317.095-2.667.123-3.972l.002-.159c.346 1.012.697 2.028 1.058 3.035.39 1.057.805 2.103 1.203 3.117l.32.812c.427 1.127.926 2.458 1.393 3.773l.05.14h2.202l.052-.14c1.192-3.29 2.395-6.681 3.559-9.964l.295-.83c.021.548.045 1.099.073 1.654.075 1.826.191 3.77.363 6.116.065 1.416-.013 1.903-.615 2.187-.09.045-.271.107-.637.148l-.187.022v.841l.224-.015a46.644 46.644 0 0 1 3.033-.105c.992 0 1.993.021 2.974.062l.22.011v-.747l-.242-.032c-.329-.035-.727-.125-.893-.51zM45.806 73.912a3.458 3.458 0 0 1-.3-.663l-4.74-13.216-.053-.149-.652.043c-.534.035-1.084.071-1.638.071-.768 0-1.57-.066-2.278-.125l-.228-.019v.678l.036.177.164.036c.508.114.615.166.615.452 0 .162-.013.246-.116.53l-4.032 11.395c-.17.474-.357.859-.493 1.023-.17.187-.443.284-.753.394l-.129.047-.045.717.297-.015c1.43-.08 2.786-.087 4.116-.011l.826.047v-.764l-.174-.03c-.895-.16-.94-.327-.94-.588 0-.301.118-.708.163-.863.01-.03.015-.051.02-.067l.806-2.376h4.418l.832 2.523c.086.228.181.523.181.764 0 .314-.084.4-.996.61l-.164.036v.8l.224-.015a49.724 49.724 0 0 1 3.055-.105c.84 0 1.726.032 2.795.105l.226.015v-.755l-.138-.052c-.428-.163-.68-.271-.905-.65zm-8.15-7.544.217-.668c.224-.732.43-1.45.626-2.178.137.562.275 1.093.43 1.616.312 1.092.682 2.149 1.044 3.173l.019.056h-2.995c.22-.658.439-1.328.658-2zM60.63 73.243l-3.284-4.736c.7-.204 1.031-.338 1.457-.581 1.468-.82 2.382-2.262 2.382-3.767a4.64 4.64 0 0 0-.766-2.501c-.796-1.165-2.184-1.785-4.125-1.847l-.103-.004c-.18 0-.361-.005-.542-.011-.183-.004-.368-.01-.553-.01h-7.503v.66l.024.18.174.03c.506.09.775.15.908.462.084.234.078.544.076.645l-.003 10.94c.022.906-.021 1.265-.286 1.472-.217.138-.484.217-.76.295l-.154.043.006.813.226-.015c.9-.062 1.831-.127 2.746-.127.817 0 1.652.056 2.459.11l.839.054v-.93h-.21c-.194 0-.739-.06-.941-.334-.187-.28-.2-.738-.2-1.407V62.245h1.506c.594 0 .828.02 1.119.06.561.104 1.575.427 2.033 1.42.19.44.198.886.198.97 0 .586-.164 1.113-.474 1.528-.617.829-1.639 1.079-2.459 1.206-.267.04-.566.062-.856.084-.205.01-.824.043-.824.486 0 .168.125.39.232.551.25.36.502.713.751 1.066.433.613.863 1.222 1.285 1.849.421.622.83 1.246 1.245 1.881l.336.51.837 1.442.13-.008a42.744 42.744 0 0 1 3.857-.026c.271.01.544.02.82.028l.217.004v-.805l-.155-.043c-.925-.26-1.082-.372-1.665-1.205zM77.52 73.912a3.463 3.463 0 0 1-.3-.663l-4.74-13.216-.053-.149-.652.043c-.533.035-1.084.071-1.637.071-.768 0-1.57-.066-2.279-.125l-.228-.019v.678l.037.177.163.036c.508.114.616.166.616.452 0 .162-.013.246-.117.53L64.3 73.122c-.17.474-.358.859-.493 1.023-.17.187-.444.284-.753.394l-.13.047-.045.717.297-.015c1.431-.08 2.785-.087 4.116-.011l.827.047v-.764l-.175-.03c-.895-.16-.94-.327-.94-.588 0-.301.118-.708.163-.863.011-.03.016-.051.02-.067l.807-2.376h4.417l.833 2.523c.086.228.18.523.18.764 0 .314-.084.4-.996.61l-.163.036v.8l.223-.015a49.727 49.727 0 0 1 3.056-.105c.839 0 1.725.032 2.795.105l.226.015v-.755l-.138-.052c-.428-.163-.68-.271-.906-.65zm-8.15-7.544.217-.668c.224-.732.43-1.45.626-2.178.138.562.276 1.093.43 1.616.313 1.092.683 2.149 1.044 3.173l.02.056H68.71c.22-.658.44-1.328.659-2zM89.55 66.914c-.502-.284-1.121-.525-2.145-.833l-2.632-.755c-.697-.226-1.564-.508-1.867-1.227-.09-.22-.09-.422-.09-.519 0-.996 1.195-1.43 1.221-1.438.248-.105.9-.284 1.786-.284 1.386 0 2.589.45 3.391 1.268.592.592.73 1.115.828 1.498l.058.218h.827l-.026-.235a40.132 40.132 0 0 1-.194-2.221c-.04-.644-.062-1.307-.084-1.95l-.023-.222-.15-.041c-1.617-.429-2.59-.69-4.328-.69-2.317 0-3.89.4-5.097 1.286-.574.418-1.91 1.597-1.934 3.54 0 .724.194 1.262.25 1.402.294.82 1.024 1.948 2.822 2.656.172.07.342.132.514.194.151.056.302.11.467.174l2.94.902c.651.198 1.265.414 1.63.915.276.36.278.818.278.837 0 .741-.458 1.31-1.37 1.695a4.313 4.313 0 0 1-1.797.284h-.054c-.62 0-2.268 0-3.514-1.35-.785-.826-.912-1.584-.998-2.1l-.028-.177h-.65l-.223.02.015.223c.064.96.129 1.916.17 2.871.01.31.017.62.021.93.007.312.01.624.022.937l.006.157.15.038c1.875.5 3.146.803 5.007.803h.087c3.42 0 5.138-1.233 5.977-2.268a4.498 4.498 0 0 0 .99-2.835c0-2.148-1.414-3.244-2.253-3.703zM102.666 72.982c-2.197 0-3.992-1.382-4.8-3.702a6.264 6.264 0 0 1-.373-2.183c0-2.303 1.07-3.556 1.4-3.89a4.29 4.29 0 0 1 3.022-1.263c.983 0 1.861.336 2.541.975.835.758.94 1.565 1.002 2.05l.026.195h.872l-.005-.217c-.021-.755-.043-1.539-.021-2.29 0-.627.032-1.255.105-2.04l.015-.164-1.656-.575c-1.298-.301-1.679-.325-2.371-.37l-.373-.022c-1.74.13-2.382.237-3.272.547-2.298.84-4.043 2.727-4.785 5.177-.396 1.212-.396 2.236-.396 2.574 0 2.62 1.32 4.58 1.893 5.306.671.816 1.868 1.957 4.48 2.432.639.117 1.228.177 1.751.177.766 0 1.287-.09 2.679-.467l1.885-.797.525-3.078-.394.241c-1.218.743-2.268 1.385-3.75 1.385zM123.132 73.493V61.998c.021-.758.142-.977.346-1.113.172-.103.478-.18.536-.185h.211v-.872l-.233.024c-1.409.149-2.02.19-2.723.19-1.072 0-2.122-.102-2.916-.19l-.222-.024-.043.81.179.036c.022.005.054.009.097.013.15.02.467.06.658.209.299.215.321.598.321 1.117v3.91h-5.65V62.02c.019-.687.103-.883.282-1.06.146-.146.269-.223.738-.284l.183-.023v-.816l-2.83.183h-.105c-.443 0-.904-.017-1.347-.037l-.082-.002c-.336-.015-.66-.047-.987-.08a35.198 35.198 0 0 0-.528-.049l-.213-.02-.045.748.162.047c.929.271 1.006.374 1.026 1.365l.002 11.333c-.082.942-.146 1.022-.998 1.229l-.151.036-.045.764.241-.021a33.94 33.94 0 0 1 2.9-.148c.932 0 1.866.086 2.769.17l.231.021v-.837l-.177-.03c-.611-.104-.774-.2-.886-.353-.14-.23-.14-.491-.14-.793v-4.808h5.693l.002 4.673c-.024.476-.069.921-.394 1.115-.172.103-.387.142-.675.187l-.179.026v.773l.226-.017c.904-.063 1.838-.127 2.773-.127.977 0 1.976.09 2.856.17l.215.019.045-.73-.164-.045c-.849-.237-.903-.3-.959-1.106zM126.886 59.897l-.288-.013v.84l.221.047c.256.054.547.116.697.25.228.178.284.635.304 1.36v10.43c.021.843-.069 1.245-.319 1.435-.183.133-.654.25-.714.258h-.211v.84l2.55-.116.697-.003 2.924.14v-.816l-.164-.038c-.46-.108-.626-.211-.74-.308-.088-.065-.178-.177-.236-.553-.022-.276-.02-.55-.02-.823V62.42c0-.248 0-.764.08-1.05.105-.487.551-.592.893-.63l.187-.02v-.862l-.226.016c-2.227.15-3.798.105-5.635.023zM148.346 59.979c-.813 0-1.614-.039-2.464-.082l-.277-.015v.86h.211c.195 0 .852.035 1.078.485.116.23.15.663.17 1.24l.129 5.476.075 1.993a42.481 42.481 0 0 0-1.063-1.62 109.797 109.797 0 0 0-1.867-2.773l-3.886-5.702-.183.015c-.781.065-1.517.123-2.304.123-.874 0-1.763-.043-2.628-.084l-.221-.01v.836h.211c.17 0 .507.044.699.207.118.101.228.256.249.726.041.307.041.634.041.981v9.824c-.019 1.122-.045 1.587-.436 1.843-.138.088-.235.122-.609.185l-.177.028v.781l.218-.004c.26-.009.525-.017.791-.028a45.755 45.755 0 0 1 3.955.045l.284.015v-.876l-.204-.006c-.592-.022-.725-.084-.906-.233-.334-.265-.394-.62-.413-1.62l-.086-6.953-.048-2.05c.228.366.461.726.693 1.077.31.458.628.917.949 1.38l.577.832c.451.638.888 1.286 1.325 1.93l4.443 6.459.062.092h2.916V62.592c0-.624.019-1.093.116-1.347.135-.392.639-.472.852-.506l.161-.033.041-.854-.239.021a26.41 26.41 0 0 1-2.235.106zM164.092 60.263c-1.033-.575-2.186-.865-3.428-.865-2.248 0-4.505.863-5.893 2.25-1.306 1.286-2.091 3.172-2.208 5.314-.116 2.48.728 4.858 2.311 6.524 1.401 1.466 3.09 2.148 5.319 2.148 2.278 0 3.767-.79 4.449-1.257a6.706 6.706 0 0 0 1.722-1.66 8.109 8.109 0 0 0 1.676-4.974c0-2.568-1.037-5.88-3.948-7.48zm-3.533 12.846a3.254 3.254 0 0 1-2.199-.824c-.796-.706-1.225-1.713-1.509-2.51-.458-1.326-.641-2.56-.546-3.67.185-2.54 1.644-3.5 2.255-3.79.213-.091.779-.328 1.525-.328 1.106 0 1.827.459 2.242.848.876.77 1.562 2.306 1.84 4.096l.008.063c.033.248.119.906.119 1.498 0 3.048-1.633 4.09-2.599 4.436-.379.121-.762.181-1.136.181zM121.532 7.075c.537 0 .96.044 1.288.186.581.253.955.845.955 1.574 0 1.164-.784 1.833-2.298 1.833h-1.234v-.143c.203-.017.28-.1.28-.312V7.53c0-.213-.077-.296-.28-.313v-.142h1.289zm-.224 3.115c.065.006.131.006.197.006.943 0 1.431-.45 1.431-1.3 0-.861-.51-1.355-1.437-1.355-.06 0-.126 0-.191.006v2.643zM126.527 7.102c.148 0 .323-.011.521-.038.044.153.088.296.137.423l.998 2.687c.088.236.159.351.339.367v.143a4.521 4.521 0 0 0-.656-.055 6.47 6.47 0 0 0-.725.055v-.143c.181-.016.247-.054.247-.186a.447.447 0 0 0-.017-.11l-.23-.697h-1.118l-.203.61a.709.709 0 0 0-.033.186c0 .127.077.192.23.197v.143a3.86 3.86 0 0 0-.57-.05c-.17 0-.351.012-.543.05v-.143c.22-.021.258-.186.362-.472l.921-2.566a.46.46 0 0 0 .039-.165c0-.088-.066-.132-.209-.137v-.137c.175.027.34.039.51.039zm-.345 2.002h.817l-.412-1.26-.405 1.26zM130.394 7.113c.186 0 .427-.016.712-.049v.137c-.23 0-.317.093-.317.318v2.655h1.014c.383 0 .57-.187.641-.603l.121.016a7.289 7.289 0 0 0-.11 1.08h-2.731v-.142c.203-.017.28-.1.28-.312V7.519c0-.214-.077-.302-.28-.318v-.137c.231.033.451.05.67.05zM137.267 10.541c.291-.038.297-.137.297-.421V7.865c0-.368-.011-.445-.351-.472V7.25c.378-.038.756-.153 1.162-.323a7.084 7.084 0 0 0-.044.697v2.496c0 .274.012.388.269.421v.143a3.35 3.35 0 0 0-.669-.055c-.17 0-.395.017-.664.055v-.143zM141.458 10.619a3.38 3.38 0 0 0 1.19-1.53.978.978 0 0 1-.708.273c-.624 0-1.091-.47-1.091-1.124 0-.714.581-1.25 1.295-1.25.751 0 1.321.613 1.321 1.496 0 .96-.658 1.882-1.837 2.398l-.17-.263zm.165-2.556c0 .504.257.816.575.816.274 0 .488-.246.488-.635 0-.478-.263-.807-.576-.807-.296 0-.487.23-.487.626zM147.737 8.869c0 1.125-.581 1.887-1.326 1.887-.785 0-1.36-.757-1.36-1.893 0-1.146.565-1.881 1.36-1.881.735 0 1.326.751 1.326 1.887zm-1.891 0c0 .937.198 1.415.548 1.415.351 0 .543-.483.543-1.415 0-.943-.186-1.42-.548-1.42-.356 0-.543.477-.543 1.42zM151.182 7.085c-.395.418-.741.867-.954 1.433a.866.866 0 0 1 .691-.313c.592 0 1.075.477 1.075 1.152 0 .763-.588 1.383-1.355 1.383-.691 0-1.261-.566-1.261-1.422 0-.91.576-1.782 1.667-2.403l.137.17zm-1.025 2.36c0 .515.247.822.554.822.285 0 .504-.274.504-.724 0-.499-.241-.817-.553-.817-.302 0-.505.264-.505.718zM78.099 5.735v6.157l.714.861v.182h-3.307v-.182l.715-.86V9.675H73.01v2.217l.715.861v.182h-3.307v-.182l.714-.86V5.734l-.715-.86v-.182h3.308v.182l-.715.86v2.303h3.21V5.735l-.714-.86v-.182h3.307v.182l-.714.86zM89.205 8.814c0 2.34-1.805 4.303-4.337 4.303s-4.337-1.964-4.337-4.303c0-2.352 1.805-4.303 4.337-4.303s4.337 1.951 4.337 4.303zm-6.785 0c0 1.406 1.018 2.52 2.448 2.52s2.447-1.114 2.447-2.52c0-1.418-1.018-2.521-2.447-2.521-1.43 0-2.448 1.103-2.448 2.521zM97.62 6.947h-.218l-.8-.618H95.15v5.49l.75.934v.182h-3.38v-.182l.751-.945V6.329h-1.453l-.8.618h-.206V4.693h6.81v2.254zM105.973 10.547v2.388h-5.961v-.182l.715-.86V5.734l-.715-.86v-.182h5.864v2.303h-.194l-.945-.667h-2.132v1.758h1.817l.642-.315h.17v2.024h-.17l-.642-.315h-1.817v1.818h2.411l.775-.752h.182zM114.791 12.935h-6.239v-.182l.715-.86V5.734l-.715-.86v-.182h3.307v.182l-.714.86V11.3h2.532l.933-1.03h.181v2.666zM29.401 8.324h-.113c-.098-.443-.505-.732-1.03-.732-.407 0-.638.186-.638.48 0 .334.309.4.92.597.69.216 1.04.483 1.04.978 0 .567-.55 1.056-1.497 1.056-.412 0-.83-.082-1.19-.232.006-.206.006-.381.006-.524 0-.073-.006-.248-.015-.542h.102c.083.536.5.86 1.071.86.464 0 .742-.206.742-.483 0-.356-.299-.418-.88-.608-.701-.227-1.051-.48-1.051-.995 0-.587.51-1.014 1.39-1.014.422 0 .803.072 1.107.2 0 .304.01.624.036.959zM32.928 7.247c0 .294.01.577.037.845h-.114c-.031-.34-.144-.392-.53-.392h-1.04v.928h.679c.252 0 .34-.052.355-.269h.099c-.011.217-.02.381-.02.495 0 .15.003.315.014.494h-.103c-.01-.221-.098-.267-.345-.267h-.68v1.077h1.154c.375 0 .489-.114.536-.531h.123c-.04.35-.072.68-.088.994h-2.724v-.134c.192-.016.263-.093.263-.293v-2.52c0-.2-.071-.278-.263-.293v-.134h2.647zM34.422 7.284c.174 0 .401-.016.669-.047v.128c-.216 0-.299.088-.299.3v2.492h.952c.36 0 .536-.175.603-.566l.113.015c-.06.34-.092.68-.103 1.015h-2.564v-.134c.191-.016.263-.093.263-.293v-2.53c0-.2-.072-.283-.263-.299v-.128c.217.03.422.047.629.047zM39.714 7.247c0 .294.01.577.037.845h-.114c-.03-.34-.144-.392-.53-.392h-1.04v.928h.679c.252 0 .34-.052.355-.269h.099c-.011.217-.02.381-.02.495 0 .15.004.315.014.494h-.102c-.011-.221-.099-.267-.346-.267h-.68v1.077h1.154c.375 0 .489-.114.536-.531h.123c-.04.35-.072.68-.088.994h-2.724v-.134c.19-.016.264-.093.264-.293v-2.52c0-.2-.073-.278-.264-.293v-.134h2.647zM43.421 7.247l-1.828 2.91h1.226c.36 0 .5-.124.571-.5h.129a6.694 6.694 0 0 0-.098.964h-2.894l1.829-2.91h-.948c-.35 0-.469.067-.53.375h-.113c.04-.272.066-.55.077-.839h2.58zM44.863 7.284c.206 0 .417-.016.633-.047v.128c-.19.016-.262.098-.262.3v2.538c0 .202.071.284.262.3v.133a4.894 4.894 0 0 0-.633-.051c-.195 0-.407.02-.629.05v-.133c.192-.015.264-.097.264-.299V7.665c0-.202-.072-.284-.264-.3v-.128c.218.03.423.047.63.047zM47.994 7.16c.416 0 .782.139 1.091.422.37.34.587.845.587 1.406 0 1.005-.695 1.73-1.715 1.73-.422 0-.787-.143-1.09-.427-.372-.345-.588-.855-.588-1.421 0-1 .705-1.71 1.715-1.71zm-.937 1.529c0 .948.421 1.55.988 1.55.515 0 .85-.406.85-1.081 0-.922-.412-1.524-.98-1.524-.534 0-.858.386-.858 1.055zM50.455 10.502c.242-.015.257-.134.257-.416v-2.36c0-.257-.036-.33-.257-.361v-.128a4.573 4.573 0 0 0 1.133 0L53.1 9.56V7.736c0-.278-.071-.366-.34-.371v-.128c.201.025.386.036.551.036.17 0 .34-.01.516-.036v.128c-.207.016-.263.088-.263.346v2.91h-.566l-1.823-2.74v2.209c0 .304.067.397.355.412v.13a3.61 3.61 0 0 0-.525-.048c-.175 0-.36.017-.551.048v-.13zM57.194 7.247c0 .294.01.577.037.845h-.114c-.03-.34-.144-.392-.53-.392h-1.04v.928h.679c.252 0 .34-.052.355-.269h.099c-.011.217-.02.381-.02.495 0 .15.004.315.014.494h-.102c-.011-.221-.099-.267-.346-.267h-.68v1.077H56.7c.375 0 .489-.114.536-.531h.123c-.04.35-.072.68-.088.994h-2.724v-.134c.192-.016.264-.093.264-.293v-2.52c0-.2-.072-.278-.264-.293v-.134h2.647zM61.158 7.247c.505 0 .902.041 1.21.175.546.237.897.794.897 1.479 0 1.092-.737 1.72-2.158 1.72h-1.159v-.134c.192-.016.263-.093.263-.293v-2.52c0-.2-.071-.278-.263-.293v-.134h1.21zm-.21 2.925c.062.006.124.006.184.006.886 0 1.344-.422 1.344-1.22 0-.81-.478-1.273-1.348-1.273-.056 0-.118 0-.18.005v2.482zM64.671 7.284c.206 0 .417-.016.634-.047v.128c-.192.016-.263.098-.263.3v2.538c0 .202.071.284.263.3v.133a4.927 4.927 0 0 0-.634-.051c-.195 0-.407.02-.629.05v-.133c.19-.015.264-.097.264-.299V7.665c0-.202-.073-.284-.263-.3v-.128c.217.03.422.047.628.047zM178.376 21.172v-.591h2.568v.591h-.927v2.783h-.683v-2.783h-.958zm3.221-.637h.061l1.641 1.777 1.641-1.777h.06v3.42h-.667v-1.976l-1.034 1.186-1.018-1.186v1.976h-.684v-3.42z"/>
    </g>
    <defs>
        <clipPath id="rt6lgpecka">
            <path fill="#fff" d="M0 0h185v120H0z"/>
        </clipPath>
    </defs>
</svg>
