<svg width="74" height="57" viewBox="0 0 74 57" fill="none" xmlns="http://www.w3.org/2000/svg">
    <path d="M70.798 0c-10.276 3.828-17.53 8.462-22.365 14.708-4.634 6.246-7.052 12.895-7.052 20.35 0 6.65 1.814 11.888 5.239 15.716 3.627 3.828 7.656 5.843 12.29 5.843 4.232 0 7.657-1.41 10.478-4.231 2.82-2.821 4.23-6.246 4.23-10.074 0-3.627-1.208-6.85-3.626-9.47-2.62-2.62-5.44-3.828-8.664-3.828-2.82 0-5.037.604-6.85 1.813-.605.604-1.008.806-1.209.806-.403 0-.605-.201-.806-.604-.202-.202-.403-1.008-.403-2.418 0-4.836 1.612-9.672 4.836-14.306 3.425-4.634 8.059-8.059 13.902-10.074V0zM29.897 0C19.823 3.627 12.367 8.462 7.734 14.708 3.099 20.954.682 27.603.682 35.058c0 6.65 1.813 11.888 5.238 15.716 3.425 3.828 7.657 5.843 12.29 5.843 4.03 0 7.456-1.41 10.276-4.231 2.821-2.821 4.232-6.246 4.232-10.074 0-3.627-1.21-6.85-3.627-9.47-2.418-2.62-5.239-3.828-8.664-3.828-2.62 0-4.835.604-6.649 1.813-.604.604-1.007.806-1.41.806-.202 0-.403-.201-.605-.604-.403-.403-.604-1.21-.604-2.418 0-5.037 1.612-9.672 5.037-14.306 3.425-4.835 8.06-8.26 13.7-10.074V0z" fill="#fff"/>
</svg>
