<svg width="709" height="460" viewBox="0 0 709 460" fill="none" xmlns="http://www.w3.org/2000/svg">
    <g clip-path="url(#dnjazv0kza)" fill="#001A70">
        <path d="M174.688 394.979c-2.811-2.145-4.477-5.041-4.964-8.63-.832-6.205 1.996-13.937 7.958-21.759 9.416-12.361 21.051-16.618 28.959-10.595 6.481 4.943 5.904 12.765 5.896 12.839l-.066.866 9.227-12.104.222-.289-.338-.107c-.47-.157-.931-.512-1.269-.768-1.072-.817-1.979-1.848-3.027-3.053-1.476-1.683-3.15-3.589-5.895-5.677-13.656-10.421-31.491-6.097-44.346 10.76-6.333 8.309-9.632 16.907-9.541 24.861.091 8.235 3.826 15.397 10.81 20.719 4.14 3.153 9.219 5.446 13.268 5.983l.148.024 7.743-10.173.462-.611-.726.206c-.082.033-8.254 2.278-14.521-2.492zM267.314 377.165l.321-.248-14.537-6.964-.388-.181.025.429c.149 2.541-.989 6.304-3.48 11.486l-6.835 14.274-16.888-8.078 6.844-14.274c2.425-5.058 4.667-8.408 6.688-9.96l.321-.247-14.916-7.146.016.429c.132 2.451-.998 6.081-3.562 11.437l-19.634 40.984c-2.457 5.124-4.782 8.598-6.72 10.025l-.338.256 14.554 6.948.371.173-.008-.412c-.083-2.443 1.162-6.428 3.603-11.519l8.724-18.203 16.879 8.07-8.732 18.219c-2.424 5.066-4.717 8.425-6.795 9.976l-.338.256 14.892 7.129.017-.388c.041-1.18.148-4.316 3.603-11.544l19.625-40.968c2.425-5.049 4.667-8.399 6.688-9.959zM271.123 377.932l.091.404c.602 2.567.239 6.701-1.031 11.957l-10.719 43.946c-1.287 5.281-2.886 9.176-4.626 11.255l-.347.421h.635c2.243 0 4.816.322 7.249.924 2.919.718 5.854 1.741 8.963 2.83 3.595 1.263 7.305 2.558 11.544 3.598 3.084.751 6.258 1.155 9.689 1.229h.181l3.9-9.901-.445.082c-2.366.372-7.495-.28-13.803-1.823-4.156-1.023-9.079-2.748-11.223-3.515l5.261-21.545 5.624 1.378c4.642 1.131 9.177 3.062 11.882 4.481l.231.124 5.318-11.288.165-.355-.396-.008c-3.158-.017-9.054-.644-13.086-1.626l-7.52-1.84 4.445-18.202 12.533 3.069c4.651 1.139 9.631 3.21 11.948 4.58l.372.222.395-11.073.009-.206-36.843-9.019-.396-.099zM349.533 444.735c-2.416-6.675-4.914-13.581-9.004-17.559 9.639-2.557 15.37-9.002 15.749-17.74.264-6.098-2.334-11.288-7.504-14.993-4.543-3.259-10.876-5.215-17.835-5.52l-16.278-.701-.428-.017.198.388c.717 1.411 1.517 4.629 1.195 11.915l-1.979 45.35c-.239 5.66-.998 9.621-2.243 11.774l-.206.363 16.121.693.412.017-.173-.38c-1.047-2.244-1.46-6.263-1.212-11.931l.783-17.856c6.622 2.368 7.883 9.39 9.112 16.181 1.006 5.619 2.053 11.428 6.135 14.555l.066.05 14.801.643.899.033-.751-.495c-3.339-2.252-5.533-8.334-7.858-14.77zm-6.259-35.514c-.156 3.763-1.673 6.585-4.51 8.384-2.078 1.312-4.84 2.021-7.842 2.021-.272 0-.552 0-.833-.016l-2.572-.099.956-21.883 2.573.116c3.323.14 6.324 1.114 8.46 2.739 2.672 2.038 3.933 4.976 3.768 8.739v-.001zM406.94 438.291c-3.685-6.065-7.495-12.344-12.286-15.438 8.798-4.349 13.243-11.981 11.899-20.505-.94-6.04-4.511-10.62-10.316-13.235-5.096-2.294-11.684-2.962-18.553-1.882l-16.079 2.525-.429.066.272.339c.99 1.246 2.408 4.241 3.546 11.453l7.042 44.87c.882 5.62.923 9.655.132 11.981l-.132.397 15.914-2.509.413-.066-.248-.33c-1.468-1.956-2.655-5.801-3.546-11.445l-2.77-17.666c6.951 1.007 9.582 7.649 12.129 14.069 2.103 5.314 4.272 10.801 8.881 13.07l.074.033 15.511-2.442-.825-.339c-3.719-1.551-7.075-7.088-10.629-12.946zm-26.543-20.389-3.405-21.643 2.539-.413c3.29-.495 6.424-.157 8.832 1.031 3.018 1.469 4.84 4.101 5.425 7.831.586 3.721-.346 6.782-2.762 9.109-1.938 1.857-4.816 3.169-8.097 3.689l-2.532.396zM439.866 431.442l-13.729-43.27c-1.707-5.38-2.326-9.365-1.847-11.841l.082-.42-15.37 4.884-.396.124.289.297c1.781 1.807 3.537 5.438 5.236 10.777l13.729 43.261c2.424 7.666 2.086 10.76 1.954 11.924l-.041.387 15.338-4.876.404-.124-.297-.297c-1.856-1.832-3.653-5.479-5.352-10.826zM491.6 410.005c-1.517 1.799-5.92 4.588-11.775 7.451-3.644 1.774-8.287 3.548-10.876 4.489l-9.722-19.911 5.203-2.541c4.305-2.121 9.021-3.548 11.998-4.183l.264-.058-3.224-12.451-.314.247c-2.457 2.03-7.404 5.33-11.098 7.129l-6.96 3.416-8.213-16.832 11.594-5.669c4.321-2.104 9.474-3.705 12.129-4.142l.421-.066-6.77-8.763-.124-.165-34.459 16.857.322.256c2.119 1.601 4.485 5.009 6.835 9.852l19.848 40.605c2.383 4.885 3.637 8.895 3.637 11.618v.545l.42-.355c1.723-1.453 3.942-2.872 6.226-3.986 2.704-1.328 5.632-2.417 8.724-3.581 3.554-1.328 7.24-2.706 11.156-4.621 2.878-1.411 5.575-3.135 8.23-5.272l.14-.107-3.323-10.108-.289.346zM518.325 362.824c-5.071-.693-10.447.182-15.181.932-7.025 1.123-13.077 2.08-16.079-1.955-2.523-3.4-1.088-8.152 3.48-11.569 5.566-4.142 11.016-3.704 16.071-2.59l.668.148-9.59-12.889-.198-.272-.206.264c-.792 1.015-1.435 1.576-2.202 2.162-.997.743-2.036 1.164-3.347 1.692-2.004.8-4.486 1.798-8.098 4.488-4.312 3.21-7.339 7.501-8.543 12.089-1.286 4.942-.362 9.72 2.68 13.812 6.572 8.846 16.896 7.435 26.024 6.205 7.9-1.072 15.362-2.087 19.444 3.416 1.641 2.195 2.144 4.704 1.476 7.237-.652 2.508-2.4 4.868-5.03 6.832-8.015 5.999-17.877 2.905-21.736 1.329l-.85-.355 9.475 12.732.074.099.116.008c.684.049 1.368.082 2.053.082 5.755 0 11.296-1.963 16.491-5.833 5.987-4.464 9.598-9.951 10.44-15.884.7-4.943-.586-10.042-3.53-13.994-3.521-4.737-8.064-7.41-13.902-8.186zM147.446 361.692c5.592 0 10.124-4.536 10.124-10.131 0-5.595-4.532-10.131-10.124-10.131-5.591 0-10.123 4.536-10.123 10.131 0 5.595 4.532 10.131 10.123 10.131zM544.798 361.692c5.592 0 10.124-4.536 10.124-10.131 0-5.595-4.532-10.131-10.124-10.131-5.591 0-10.123 4.536-10.123 10.131 0 5.595 4.532 10.131 10.123 10.131zM82.29 159.936C78.56 190.455 50.13 189.61 42.032 189.61c-49.793 0-44.82-48.465-19.496-48.465 19.293 0 16.803 17.076 9.33 17.929-.616 0-1.03-.203-1.241-.642-8.09-10.241-19.303 17.938 9.541 17.938 10.994 0 15.773-8.534 15.773-15.158 0-30.739-50.004-27.968-50.004-56.146 0-28.39 31.326-27.968 37.972-27.968 26.766 0 35.277 10.46 35.277 20.498.203 10.241-8.097 19.637-17.638 15.581-.625-.211-1.242-.853-1.453-1.495-.21-.854 0-1.496.617-2.138 8.3-9.818 1.874-20.279-15.562-20.279-13.071 0-16.178 7.047-16.178 10.46 0 23.482 57.89 21.783 53.322 60.211M185.446 105.278c1.453 5.763-5.395 4.056-6.848 2.561-3.318-3.422-5.809-16.865-25.728-16.865h-3.318v83.049c0 7.9 2.905 10.037 4.771 11.102 1.866.853 1.038 2.56 0 2.56h-33.412c-.828 0-1.866-1.707 0-2.56 1.874-1.065 4.771-3.202 4.771-11.102v-83.05h-3.108c-20.13 0-22.62 13.444-25.939 16.866-1.452 1.495-8.292 3.202-6.637-2.561 1.453-5.982 4.771-15.8 6.012-20.067 1.25-4.267 2.077-6.193 4.779-6.193h73.875c2.482 0 3.31 1.926 4.559 6.193 1.453 4.267 4.568 14.085 6.223 20.067zM268.806 187.686h-36.308c-.827 0-1.663-1.926 0-2.56 6.223-3.202 3.116-13.24 1.452-19.856l-32.576-10.891-6.434 18.36c-2.077 8.543 2.28 11.534 3.53 12.387 1.241.854.827 2.56 0 2.56h-27.189c-1.039 0-1.655-1.495 0-2.56 1.663-1.284 7.27-2.349 11.205-14.093l28.219-83.05c.827-3.844-1.444-4.909-2.896-6.193-1.664-1.495-.836-2.771 0-2.771h32.778c1.039 0 1.664 1.276 0 2.771-2.077 1.927-3.318 2.78-2.077 7.258l20.966 81.985c3.943 11.744 7.675 12.809 9.33 14.093 1.664 1.065.836 2.56 0 2.56m-38.799-38.428-11.618-45.263-12.658 37.152 24.276 8.111zM343.279 187.686c-26.353 0-16.187-33.307-30.507-43.345h-4.763v29.683c0 7.9 2.897 10.037 4.763 11.102 1.866.853.836 2.56 0 2.56h-33.606c-.836 0-1.866-1.707 0-2.56 1.866-1.065 4.77-3.202 4.77-11.102V89.048c0-4.478-3.115-5.762-4.77-7.258-1.664-1.495-.836-2.78 0-2.78h45.444c42.742 0 40.876 56.586 6.637 64.486.827 1.918 1.866 4.056 2.693 6.616 6.434 18.36 18.889 14.727 20.755 9.387.616-1.487 2.28-1.918 3.529-1.065 8.089 6.194 8.917 29.252-14.945 29.252m-26.353-96.711h-8.917v41.199h7.878c24.69 0 28.017-41.2 1.039-41.2M434.648 187.899h-60.17c-.836 0-1.875-1.926 0-2.771 1.866-1.073 4.77-3.211 4.77-11.103V89.05c0-4.478-3.115-5.763-4.77-7.258-1.664-1.496-.836-2.78 0-2.78h33.606c.836 0 1.452 1.284 0 2.78-1.655 1.495-4.763 2.78-4.763 7.258v89.242h13.485c17.639 0 17.428-11.525 17.428-11.525 0-7.689-3.943-5.129-4.771-4.706-3.951 2.138-8.925-.634-8.714-6.396.414-5.129 4.146-11.103 13.485-11.103 24.073 0 20.332 43.337.414 43.337M496.458 187.899h-33.606c-.836 0-1.874-1.926 0-2.771 1.866-1.073 4.771-3.211 4.771-11.103V89.05c0-4.478-3.116-5.763-4.771-7.258-1.663-1.496-.836-2.78 0-2.78h33.606c.836 0 1.452 1.284 0 2.78-1.655 1.495-4.762 2.78-4.762 7.258v84.975c0 7.892 2.896 10.03 4.762 11.103 1.866.845.836 2.771 0 2.771zM599.622 187.899h-23.448c-.828 0-1.866-1.926 0-2.771 1.663-.862 4.146-2.78 4.568-8.762 0-24.546-46.897-58.064-51.465-62.12v59.779c0 7.892 2.905 10.03 4.779 11.103 1.867.845.828 2.771 0 2.771h-23.448c-.836 0-1.866-1.926 0-2.771 1.866-1.073 4.771-3.211 4.771-11.103V89.05c0-4.478-3.116-5.763-4.771-7.258-3.732-3.625 3.521-2.78 4.771-2.78h25.939c-4.982 18.15 26.969 36.298 39.626 52.733V89.05c0-4.478-3.107-5.763-4.77-7.258-3.943-3.625 3.529-2.78 4.77-2.78h18.678c.836 0 1.663 1.284 0 2.78-1.663 1.495-4.771 2.78-4.771 7.258v84.975c0 7.892 2.905 10.03 4.771 11.103 1.866.845.836 2.771 0 2.771zM692.114 133.243c0 30.316-18.467 54.447-41.087 54.447-22.621 0-41.088-24.131-41.088-54.447 0-29.886 18.467-54.229 41.088-54.229 22.62 0 41.087 24.343 41.087 54.229zm-23.862 0c0-23.481-7.684-42.695-17.225-42.695-9.55 0-17.226 19.214-17.226 42.695 0 23.7 7.676 42.914 17.226 42.914 9.541 0 17.225-19.214 17.225-42.914zM114.675 283.463c-.247-.586-.379-1.923-.528-3.474a104.72 104.72 0 0 0-.23-2.178l-2.54-38.369c0-.528-.025-1.048-.041-1.568a34.254 34.254 0 0 1-.042-1.642c0-1.733.223-2.781 1.468-3.408.627-.346 1.443-.544 1.583-.553h.809v-3.226l-8.947.545-3.068.008-7.924-.537-6.53 18.582a3825.263 3825.263 0 0 0-7.315 20.736c-.94-2.591-1.904-5.207-2.853-7.764l-.899-2.443c-.733-2.021-1.492-3.985-2.25-5.949a344.956 344.956 0 0 1-1.782-4.679 3105.667 3105.667 0 0 1-4.873-12.921l-1.996-5.306-.585.033c-6.028.339-12.377.305-18.578 0l-.85-.049v2.929l.677.107c1.468.248 2.226.454 2.861 1.345.825 1.089.734 3.169.586 6.626l-2.383 39.301c-.314 4.192-.693 4.695-4.47 5.949l-.552.19.025 2.938.874-.075c2.96-.239 6.027-.486 9.111-.486 3.018 0 6.102.165 9.087.321l.85.05v-2.83l-.652-.132-.223-.033c-3.034-.438-3.99-1.576-4.28-2.5-.28-.735-.23-1.725-.205-2.261l.016-.33c0-1.552.074-3.029.149-4.572l.008-.239c.132-2.31.239-4.596.346-6.882.1-2.029.198-4.067.305-6.122.248-5.05.363-10.223.47-15.224l.009-.61a846.914 846.914 0 0 0 4.057 11.634c1.492 4.051 3.084 8.062 4.609 11.948l1.229 3.111c1.632 4.323 3.545 9.423 5.335 14.464l.19.537h8.443l.198-.537c4.568-12.608 9.178-25.612 13.639-38.195l1.13-3.185c.082 2.104.172 4.216.28 6.345.288 6.997.733 14.448 1.393 23.442.248 5.429-.05 7.294-2.358 8.383-.346.174-1.04.413-2.44.57l-.718.082v3.227l.857-.058c4.379-.281 8.073-.404 11.627-.404 3.801 0 7.635.082 11.396.239l.841.041v-2.863l-.924-.124c-1.261-.132-2.787-.479-3.422-1.956v.001zM175.546 283.33c-.396-.693-.61-1.081-1.146-2.541l-18.166-50.663-.206-.57-2.498.165c-2.045.132-4.156.273-6.275.273-2.944 0-6.02-.256-8.733-.479l-.874-.074v2.599l.14.677.627.14c1.946.437 2.358.635 2.358 1.733 0 .619-.049.94-.445 2.03l-15.453 43.682c-.651 1.815-1.368 3.293-1.888 3.92-.651.717-1.699 1.089-2.886 1.51l-.495.181-.173 2.748 1.138-.058c5.484-.305 10.678-.33 15.774-.041l3.167.181v-2.929l-.668-.115c-3.43-.611-3.604-1.255-3.604-2.253 0-1.155.454-2.715.627-3.309.041-.115.058-.198.074-.256l3.092-9.109h16.929l3.191 9.671c.33.874.693 2.005.693 2.929 0 1.204-.322 1.535-3.818 2.335l-.627.14v3.07l.858-.058c4.411-.272 8.246-.404 11.709-.404 3.216 0 6.613.123 10.711.404l.866.058v-2.897l-.528-.198c-1.641-.627-2.605-1.039-3.471-2.491v-.001zm-31.235-28.921.832-2.557c.858-2.806 1.65-5.562 2.4-8.351a135.532 135.532 0 0 0 1.649 6.197c1.196 4.183 2.614 8.235 3.999 12.162l.075.215h-11.479a1388.56 1388.56 0 0 0 2.524-7.666zM232.36 280.764l-12.583-18.153c2.679-.783 3.949-1.295 5.582-2.227 5.624-3.144 9.128-8.673 9.128-14.44 0-3.284-1.097-6.865-2.935-9.588-3.051-4.464-8.37-6.841-15.808-7.08l-.396-.017c-.692 0-1.385-.016-2.077-.041-.701-.016-1.41-.041-2.12-.041h-28.753v2.533l.091.693.668.116c1.937.338 2.968.569 3.48 1.765.321.9.296 2.088.288 2.476l-.008 41.933c.082 3.474-.083 4.852-1.097 5.644-.833.528-1.855.834-2.911 1.131l-.593.165.024 3.119.866-.058c3.447-.239 7.017-.487 10.522-.487 3.133 0 6.333.215 9.425.421l3.216.206v-3.565h-.808c-.742 0-2.829-.231-3.604-1.279-.717-1.072-.767-2.83-.767-5.396v-39.986h5.772c2.276 0 3.175.074 4.288.231 2.152.396 6.036 1.634 7.793 5.438.725 1.691.758 3.399.758 3.721 0 2.244-.627 4.266-1.814 5.858-2.366 3.177-6.283 4.134-9.425 4.621-1.022.157-2.169.24-3.282.322-.783.041-3.158.165-3.158 1.865 0 .643.478 1.493.891 2.112.956 1.378 1.921 2.731 2.877 4.085 1.658 2.351 3.307 4.686 4.923 7.088a523.633 523.633 0 0 1 4.775 7.211l1.286 1.956 3.208 5.528.494-.033c4.874-.264 9.895-.28 14.785-.099 1.039.042 2.086.075 3.142.108l.832.016v-3.086l-.593-.165c-3.546-.998-4.148-1.427-6.382-4.621zM297.089 283.33c-.395-.693-.61-1.081-1.146-2.541l-18.165-50.663-.206-.57-2.499.165c-2.045.132-4.156.273-6.275.273-2.944 0-6.019-.256-8.732-.479l-.874-.074v2.599l.14.677.627.14c1.946.437 2.358.635 2.358 1.733 0 .619-.05.94-.445 2.03l-15.453 43.682c-.652 1.815-1.369 3.293-1.888 3.92-.652.717-1.699 1.089-2.886 1.51l-.495.181-.173 2.748 1.138-.058c5.483-.305 10.67-.33 15.774-.041l3.166.181v-2.929l-.668-.115c-3.43-.611-3.603-1.255-3.603-2.253 0-1.155.453-2.715.627-3.309.041-.115.057-.198.074-.256l3.092-9.109h16.929l3.191 9.671c.33.874.692 2.005.692 2.929 0 1.204-.321 1.535-3.817 2.335l-.627.14v3.07l.857-.058c4.412-.272 8.246-.404 11.71-.404 3.215 0 6.613.123 10.711.404l.866.058v-2.897l-.528-.198c-1.641-.627-2.606-1.039-3.472-2.491v-.001zm-31.235-28.921.833-2.557a256.443 256.443 0 0 0 2.4-8.351 132.991 132.991 0 0 0 1.649 6.197c1.195 4.183 2.614 8.235 3.999 12.162l.074.215h-11.478a1388.95 1388.95 0 0 0 2.523-7.666zM343.192 256.505c-1.921-1.089-4.296-2.013-8.221-3.193l-10.085-2.896c-2.672-.867-5.995-1.947-7.157-4.703-.347-.842-.347-1.618-.347-1.989 0-3.82 4.585-5.479 4.684-5.512.948-.404 3.447-1.089 6.844-1.089 5.31 0 9.92 1.725 12.995 4.86 2.268 2.269 2.796 4.274 3.175 5.743l.223.833h3.166l-.099-.899a154.18 154.18 0 0 1-.742-8.515c-.157-2.468-.239-5.009-.322-7.476l-.09-.85-.577-.157c-6.193-1.642-9.92-2.64-16.583-2.64-8.881 0-14.908 1.526-19.534 4.926-2.202 1.601-7.323 6.122-7.413 13.573 0 2.773.742 4.836.956 5.372 1.13 3.144 3.925 7.467 10.819 10.182.659.264 1.311.503 1.971.743.577.214 1.154.42 1.789.668l11.264 3.457c2.498.759 4.848 1.585 6.25 3.507 1.055 1.378 1.064 3.136 1.064 3.21 0 2.838-1.757 5.017-5.253 6.494-2.729 1.105-5.69 1.196-6.885 1.089h-.206c-2.375 0-8.691 0-13.466-5.174-3.01-3.168-3.496-6.073-3.826-8.053l-.107-.677h-2.49l-.858.075.058.858c.247 3.68.495 7.344.651 11.007.042 1.188.066 2.376.083 3.565.025 1.196.041 2.393.082 3.589l.025.602.577.149c7.183 1.914 12.056 3.078 19.188 3.078h.33c13.111 0 19.691-4.728 22.907-8.697 3.133-3.92 3.793-8.07 3.793-10.867 0-8.235-5.417-12.435-8.633-14.193zM393.458 279.766c-8.419 0-15.296-5.297-18.396-14.192-1.278-3.548-1.427-6.478-1.427-8.367 0-8.829 4.099-13.631 5.368-14.91.767-.809 4.923-4.844 11.578-4.844 3.768 0 7.132 1.287 9.738 3.738 3.199 2.904 3.603 5.999 3.842 7.855l.099.751h3.34l-.017-.833c-.082-2.896-.164-5.9-.082-8.78 0-2.401.124-4.81.404-7.822l.058-.627-6.349-2.203c-4.973-1.155-6.432-1.246-9.087-1.419l-1.427-.083c-6.671.495-9.128.908-12.542 2.096-8.806 3.218-15.494 10.454-18.339 19.844-1.517 4.646-1.517 8.574-1.517 9.869 0 10.042 5.063 17.559 7.257 20.34 2.572 3.127 7.157 7.5 17.167 9.324 2.449.445 4.709.676 6.712.676 2.936 0 4.931-.346 10.266-1.79l7.224-3.053 2.012-11.8-1.509.925c-4.667 2.846-8.691 5.305-14.373 5.305zM471.893 281.721v-44.062c.082-2.904.544-3.746 1.327-4.266.66-.396 1.831-.693 2.054-.709h.808v-3.342l-.891.091c-5.401.569-7.743.726-10.439.726-4.107 0-8.131-.388-11.173-.726l-.85-.091-.164 3.103.684.14c.082.016.206.033.371.049.577.075 1.789.231 2.523.801 1.146.825 1.229 2.294 1.229 4.282v14.985h-21.654v-14.96c.075-2.632.396-3.383 1.081-4.06.56-.561 1.03-.858 2.828-1.089l.701-.091v-3.127l-10.843.701h-.405c-1.698 0-3.463-.066-5.161-.14l-.314-.008c-1.286-.058-2.531-.182-3.785-.305-.667-.066-1.335-.132-2.02-.19l-.816-.074-.173 2.863.618.181c3.562 1.04 3.859 1.436 3.933 5.232l.009 43.443c-.314 3.614-.561 3.919-3.826 4.712l-.578.14-.173 2.929.924-.083c3.265-.28 7.132-.569 11.115-.569 3.571 0 7.149.33 10.613.652l.882.083v-3.21l-.676-.116c-2.342-.396-2.969-.767-3.398-1.353-.536-.883-.536-1.881-.536-3.036v-18.434h21.819l.008 17.914c-.091 1.823-.264 3.531-1.509 4.274-.659.396-1.484.545-2.589.718l-.684.099v2.962l.865-.066c3.464-.239 7.042-.487 10.629-.487 3.744 0 7.57.347 10.943.652l.824.074.173-2.797-.626-.173c-3.257-.908-3.464-1.147-3.678-4.241v-.001zM486.282 229.606l-1.105-.049v3.218l.849.181c.981.206 2.095.446 2.672.957.874.685 1.088 2.434 1.163 5.215v39.978c.082 3.234-.264 4.777-1.221 5.504-.701.511-2.507.957-2.737.99h-.809v3.218l9.772-.446 2.671-.008 11.207.536v-3.127l-.627-.148c-1.765-.413-2.4-.809-2.837-1.18-.338-.248-.684-.677-.907-2.121-.082-1.056-.074-2.104-.074-3.152v-39.895c0-.949 0-2.93.305-4.027.404-1.865 2.111-2.269 3.422-2.409l.717-.083v-3.3l-.865.057c-8.535.578-14.554.405-21.596.091zM568.525 229.92c-3.116 0-6.184-.149-9.441-.314l-1.064-.058v3.301h.808c.751 0 3.266.132 4.132 1.856.445.883.577 2.542.651 4.753l.495 20.992.288 7.64a161.788 161.788 0 0 0-4.073-6.213 409.142 409.142 0 0 0-7.158-10.628l-14.891-21.857-.701.057c-2.994.248-5.814.471-8.832.471-3.347 0-6.753-.165-10.068-.322l-.849-.041v3.209h.808c.651 0 1.946.165 2.68.792.453.388.874.982.956 2.781.157 1.18.157 2.434.157 3.763v37.659c-.074 4.299-.173 6.081-1.674 7.063-.528.338-.899.47-2.334.71l-.676.107v2.995l.833-.016c.998-.033 2.012-.066 3.035-.108a175.02 175.02 0 0 1 15.155.174l1.089.058v-3.359l-.783-.025c-2.268-.082-2.779-.321-3.472-.891-1.278-1.015-1.509-2.376-1.583-6.213l-.33-26.652-.181-7.855a175.66 175.66 0 0 0 2.655 4.126c1.187 1.757 2.408 3.515 3.636 5.289l2.21 3.193c1.732 2.442 3.406 4.926 5.079 7.393l17.028 24.762.239.355h11.173v-48.93c0-2.393.075-4.192.446-5.166.519-1.501 2.449-1.807 3.265-1.939l.618-.124.157-3.275-.915.082c-3.208.273-6.012.405-8.568.405zM628.869 231.009c-3.958-2.203-8.378-3.317-13.136-3.317-8.617 0-17.267 3.308-22.585 8.622-5.005 4.935-8.015 12.163-8.46 20.373-.446 9.505 2.787 18.623 8.856 25.01 5.368 5.619 11.841 8.235 20.383 8.235 8.733 0 14.439-3.029 17.053-4.819 3.991-2.632 6.365-6.015 6.596-6.362 5.311-6.915 6.424-14.184 6.424-19.069 0-9.844-3.975-22.543-15.131-28.673zm-13.54 49.244c-3.191 0-6.028-1.065-8.427-3.161-3.051-2.706-4.692-6.568-5.781-9.621-1.756-5.082-2.457-9.81-2.094-14.068.709-9.737 6.3-13.417 8.642-14.531.816-.346 2.985-1.254 5.846-1.254 4.238 0 7 1.758 8.592 3.251 3.356 2.954 5.986 8.837 7.05 15.702l.033.24c.124.949.454 3.473.454 5.743 0 11.684-6.259 15.677-9.961 17.006a14.366 14.366 0 0 1-4.354.693zM465.765 27.12c2.058 0 3.678.168 4.936.714 2.227.968 3.658 3.241 3.658 6.035 0 4.46-3.006 7.024-8.807 7.024h-4.728v-.545c.779-.066 1.074-.382 1.074-1.198V28.864c0-.817-.295-1.133-1.074-1.198v-.546h4.941zm-.861 11.943c.25.021.504.021.754.021 3.617 0 5.486-1.723 5.486-4.98 0-3.304-1.956-5.195-5.506-5.195-.23 0-.484 0-.734.02v10.135zM484.908 27.227c.566 0 1.238-.045 1.997-.148.168.587.336 1.136.525 1.62l3.825 10.303c.336.902.607 1.346 1.3 1.407v.546a17.37 17.37 0 0 0-2.518-.21c-.799 0-1.726.087-2.776.21v-.546c.693-.061.948-.21.948-.714 0-.106-.025-.275-.066-.422l-.882-2.671h-4.284l-.779 2.334c-.086.296-.127.53-.127.718 0 .484.295.735.881.755v.546c-.82-.123-1.533-.189-2.185-.189-.652 0-1.345.045-2.079.189v-.546c.841-.082.988-.714 1.386-1.81l3.53-9.838c.086-.234.148-.422.148-.632 0-.336-.25-.504-.8-.525v-.525a12.75 12.75 0 0 0 1.956.148zm-1.324 7.672h3.132l-1.578-4.833-1.554 4.833zM499.726 27.268c.713 0 1.636-.062 2.731-.19v.526c-.882 0-1.218.357-1.218 1.219v10.179h3.887c1.468 0 2.185-.718 2.456-2.314l.463.061a28.176 28.176 0 0 0-.418 4.144h-10.468v-.546c.779-.065 1.074-.381 1.074-1.198V28.823c0-.821-.295-1.157-1.074-1.219v-.525c.886.127 1.726.189 2.567.189zM526.069 40.41c1.115-.148 1.135-.526 1.135-1.617v-8.645c0-1.407-.041-1.703-1.344-1.81v-.545c1.447-.148 2.898-.587 4.452-1.239-.102 1.01-.168 1.912-.168 2.67v9.569c0 1.05.045 1.489 1.033 1.616v.546c-.967-.189-1.808-.21-2.566-.21-.652 0-1.513.066-2.542.21v-.546zM542.129 40.705c2.058-1.453 3.592-3.45 4.559-5.867-.693.693-1.64 1.05-2.71 1.05-2.395 0-4.182-1.805-4.182-4.308 0-2.737 2.226-4.796 4.961-4.796 2.878 0 5.064 2.355 5.064 5.74 0 3.68-2.522 7.212-7.04 9.19l-.652-1.01zm.631-9.798c0 1.933.988 3.13 2.206 3.13 1.05 0 1.87-.943 1.87-2.436 0-1.83-1.009-3.094-2.206-3.094-1.136 0-1.87.886-1.87 2.4zM566.192 33.996c0 4.313-2.226 7.234-5.084 7.234-3.005 0-5.211-2.901-5.211-7.254 0-4.394 2.165-7.213 5.211-7.213 2.817 0 5.084 2.88 5.084 7.233zm-7.249 0c0 3.595.759 5.424 2.104 5.424 1.345 0 2.078-1.85 2.078-5.424 0-3.614-.713-5.444-2.099-5.444-1.365 0-2.083 1.83-2.083 5.444zM579.394 27.161c-1.513 1.6-2.837 3.323-3.653 5.49.673-.8 1.575-1.198 2.645-1.198 2.271 0 4.12 1.83 4.12 4.414 0 2.926-2.25 5.301-5.19 5.301-2.649 0-4.834-2.166-4.834-5.448 0-3.492 2.206-6.832 6.388-9.211l.524.652zm-3.927 9.043c0 1.977.947 3.155 2.123 3.155 1.091 0 1.932-1.05 1.932-2.778 0-1.912-.923-3.13-2.12-3.13-1.156 0-1.935 1.009-1.935 2.753zM299.307 21.985v23.603l2.739 3.298v.698h-12.675v-.698l2.739-3.298v-8.502h-12.305v8.502l2.739 3.298v.698H269.87v-.698l2.739-3.298V21.985l-2.739-3.298v-.698h12.674v.698l-2.739 3.298v8.829h12.305v-8.829l-2.739-3.298v-.698h12.675v.698l-2.739 3.298zM341.873 33.787c0 8.967-6.919 16.495-16.624 16.495-9.704 0-16.621-7.527-16.621-16.495 0-9.014 6.917-16.494 16.621-16.494 9.705 0 16.624 7.48 16.624 16.494zm-26.003 0c0 5.39 3.901 9.663 9.379 9.663 5.479 0 9.38-4.273 9.38-9.663 0-5.437-3.901-9.664-9.38-9.664-5.478 0-9.379 4.227-9.379 9.664zM374.121 26.631h-.835l-3.064-2.37h-5.573V45.31l2.88 3.577v.698h-12.955v-.698l2.878-3.623V24.26h-5.571l-3.065 2.37h-.79V17.99h26.095v8.642zM406.133 40.43v9.154h-22.844v-.698l2.74-3.298V21.985l-2.74-3.298v-.698h22.473v8.829h-.743l-3.621-2.557h-8.173V31h6.965l2.46-1.208h.651v7.758h-.651l-2.46-1.207h-6.965v6.97h9.241l2.971-2.881h.696zM439.931 49.584h-23.912v-.698l2.74-3.298V21.985l-2.74-3.298v-.698h12.675v.698l-2.74 3.298v21.327h9.705l3.576-3.95h.696v10.222zM112.678 31.908h-.435c-.373-1.699-1.935-2.806-3.944-2.806-1.562 0-2.448.714-2.448 1.838 0 1.284 1.185 1.538 3.53 2.29 2.645.828 3.986 1.854 3.986 3.75 0 2.174-2.112 4.049-5.74 4.049-1.579 0-3.178-.316-4.56-.89.021-.789.021-1.461.021-2.011 0-.28-.021-.948-.058-2.076h.394c.316 2.055 1.915 3.298 4.104 3.298 1.775 0 2.842-.791 2.842-1.854 0-1.362-1.144-1.6-3.375-2.33-2.685-.87-4.026-1.838-4.026-3.812 0-2.252 1.956-3.89 5.33-3.89 1.615 0 3.075.276 4.239.768 0 1.165.042 2.392.14 3.676zM126.196 27.78c0 1.125.041 2.212.139 3.238h-.434c-.119-1.305-.554-1.502-2.034-1.502h-3.985v3.557h2.603c.968 0 1.304-.2 1.362-1.03h.377c-.041.83-.078 1.461-.078 1.896 0 .574.016 1.206.057 1.895h-.393c-.041-.849-.378-1.025-1.325-1.025h-2.603v4.127h4.42c1.439 0 1.873-.435 2.054-2.035h.471a58.949 58.949 0 0 0-.336 3.812h-10.439V40.2c.734-.062 1.009-.357 1.009-1.124v-9.658c0-.768-.275-1.067-1.009-1.125v-.512h10.144zM131.92 27.92c.668 0 1.537-.061 2.562-.18v.492c-.828 0-1.144.336-1.144 1.149v9.555h3.649c1.382 0 2.054-.673 2.309-2.17l.434.057a26.992 26.992 0 0 0-.393 3.89h-9.828V40.2c.734-.062 1.008-.357 1.008-1.124V29.38c0-.772-.274-1.088-1.008-1.15v-.492c.832.12 1.619.181 2.411.181zM152.203 27.78c0 1.125.041 2.212.139 3.238h-.434c-.119-1.305-.554-1.502-2.034-1.502h-3.985v3.557h2.603c.968 0 1.304-.2 1.361-1.03h.378c-.041.83-.078 1.461-.078 1.896 0 .574.016 1.206.057 1.895h-.394c-.041-.849-.377-1.025-1.324-1.025h-2.603v4.127h4.419c1.44 0 1.874-.435 2.055-2.035h.471a58.949 58.949 0 0 0-.336 3.812h-10.439V40.2c.73-.062 1.009-.357 1.009-1.124v-9.658c0-.768-.279-1.067-1.009-1.125v-.512h10.144zM166.409 27.78l-7.007 11.156h4.699c1.382 0 1.915-.476 2.19-1.916h.492a25.71 25.71 0 0 0-.374 3.693h-11.09l7.007-11.156h-3.633c-1.341 0-1.796.259-2.029 1.44h-.435c.156-1.046.254-2.113.295-3.216h9.885zM171.936 27.92c.788 0 1.595-.061 2.424-.18v.492c-.73.061-1.005.377-1.005 1.149v9.731c0 .772.275 1.088 1.005 1.145v.513c-.866-.115-1.677-.197-2.424-.197-.75 0-1.562.082-2.41.197v-.513c.733-.057 1.008-.373 1.008-1.145v-9.731c0-.772-.275-1.088-1.008-1.15v-.492c.832.12 1.619.181 2.41.181zM183.933 27.444c1.595 0 2.997.534 4.182 1.62 1.419 1.301 2.251 3.238 2.251 5.388 0 3.852-2.665 6.634-6.572 6.634-1.62 0-3.018-.55-4.182-1.637-1.423-1.321-2.251-3.278-2.251-5.449 0-3.832 2.702-6.556 6.572-6.556zm-3.591 5.863c0 3.635 1.615 5.945 3.788 5.945 1.972 0 3.255-1.559 3.255-4.148 0-3.532-1.578-5.842-3.751-5.842-2.05 0-3.292 1.48-3.292 4.045zM193.364 40.257c.93-.057.988-.513.988-1.596v-9.047c0-.984-.14-1.263-.988-1.382v-.492c.733.098 1.422.139 2.132.139.692 0 1.439-.041 2.21-.14l5.801 8.908v-6.991c0-1.067-.275-1.404-1.304-1.424v-.492c.771.098 1.48.139 2.112.139.652 0 1.304-.041 1.976-.14v.493c-.791.061-1.008.336-1.008 1.325v11.156h-2.169l-6.987-10.504v8.469c0 1.165.258 1.522 1.361 1.58v.496c-.787-.12-1.459-.181-2.013-.181-.668 0-1.377.062-2.111.18v-.496zM219.194 27.78c0 1.125.041 2.212.139 3.238h-.434c-.119-1.305-.554-1.502-2.034-1.502h-3.985v3.557h2.603c.968 0 1.304-.2 1.362-1.03h.377c-.041.83-.078 1.461-.078 1.896 0 .574.016 1.206.057 1.895h-.393c-.041-.849-.378-1.025-1.325-1.025h-2.603v4.127h4.42c1.439 0 1.873-.435 2.054-2.035h.471a59.667 59.667 0 0 0-.336 3.812H209.05V40.2c.734-.062 1.009-.357 1.009-1.124v-9.658c0-.768-.275-1.067-1.009-1.125v-.512h10.144zM234.385 27.78c1.935 0 3.456.156 4.637.67 2.091.91 3.436 3.044 3.436 5.67 0 4.184-2.825 6.593-8.27 6.593h-4.44V40.2c.733-.062 1.008-.357 1.008-1.124v-9.658c0-.768-.275-1.067-1.008-1.125v-.512h4.637zm-.808 11.214c.238.02.476.02.709.02 3.395 0 5.15-1.616 5.15-4.677 0-3.102-1.833-4.878-5.166-4.878-.217 0-.455 0-.693.02v9.515zM247.849 27.92c.788 0 1.595-.061 2.428-.18v.492c-.734.061-1.009.377-1.009 1.149v9.731c0 .772.275 1.088 1.009 1.145v.513c-.87-.115-1.681-.197-2.428-.197-.75 0-1.562.082-2.41.197v-.513c.729-.057 1.008-.373 1.008-1.145v-9.731c0-.772-.279-1.088-1.008-1.15v-.492c.832.12 1.619.181 2.41.181zM683.614 81.16v-2.266h9.84v2.265h-3.549v10.669h-2.621V81.159h-3.67zm12.345-2.443h.232l6.29 6.812 6.29-6.812H709v13.11h-2.556v-7.573l-3.963 4.546-3.902-4.546v7.573h-2.62v-13.11z"/>
    </g>
    <defs>
        <clipPath id="dnjazv0kza">
            <path fill="#fff" d="M0 0h709v460H0z"/>
        </clipPath>
    </defs>
</svg>
